<svg xmlns="http://www.w3.org/2000/svg" width="190.05" height="196.834" viewBox="0 0 190.05 196.834"><g transform="translate(-355.078 -138.292)"><path d="M139.5,169.355q-7.383-5.926-23.98-5.928h-15.9a5.928,5.928,0,0,0-5.928,5.928v61.189a5.927,5.927,0,0,0,5.928,5.927h4.041a5.927,5.927,0,0,0,5.928-5.927V219.685a5.926,5.926,0,0,1,5.927-5.927q16.6,0,23.98-5.928,7.275-5.873,7.275-19.238T139.5,169.355Zm-22.789,11.993h-1.2a1.733,1.733,0,0,0-1.358.41,3.193,3.193,0,0,0-.342,1.808v2.042a3.984,3.984,0,0,1-.479,2.266,2.5,2.5,0,0,1-1.71.84,2.545,2.545,0,0,1,1.71.87,3.984,3.984,0,0,1,.479,2.266v2a3.238,3.238,0,0,0,.342,1.827,1.729,1.729,0,0,0,1.358.411h1.2v1.866h-1.465a5.217,5.217,0,0,1-3.253-.723q-.831-.714-.831-2.882v-2.1a5.49,5.49,0,0,0-.122-1.216,1.755,1.755,0,0,0-.4-.826,1.58,1.58,0,0,0-.752-.42,4.267,4.267,0,0,0-1.143-.137h-.9v-1.866h.9a2.562,2.562,0,0,0,1.9-.556,3.082,3.082,0,0,0,.518-2.043v-2.1q0-2.169.831-2.882.8-.714,3.253-.713h1.465Zm13.356,8.3h-.9a2.549,2.549,0,0,0-1.905.567,2.959,2.959,0,0,0-.538,2.032v2.1a3.844,3.844,0,0,1-.811,2.882,5.2,5.2,0,0,1-3.243.723h-1.465v-1.866h1.182a1.742,1.742,0,0,0,1.367-.42,3.141,3.141,0,0,0,.352-1.818v-2a3.984,3.984,0,0,1,.479-2.266,2.514,2.514,0,0,1,1.7-.87,2.4,2.4,0,0,1-1.7-.84,3.984,3.984,0,0,1-.479-2.266v-2.042a3.168,3.168,0,0,0-.342-1.8,1.033,1.033,0,0,0-.547-.322,3.156,3.156,0,0,0-.83-.1h-1.182v-1.856h1.465a5.145,5.145,0,0,1,3.243.713,3.842,3.842,0,0,1,.811,2.882v2.1a5.6,5.6,0,0,0,.25,1.583,1.234,1.234,0,0,0,.713.757,4.654,4.654,0,0,0,1.48.259h.9Z" transform="translate(329.301 -25.135)" fill="#e9eff1"/><path d="M16.543-27.548v-12.5h6.6c4.828,0,6.887,2.414,6.887,6.248s-2.059,6.248-6.887,6.248ZM42.387-33.8c0-9.159-6.106-16.046-18.318-16.046H4.4V0H16.543V-17.892h7.526C36.778-17.892,42.387-25.56,42.387-33.8Zm6.319-16.046V0H76.751V-9.372h-15.9v-40.47ZM82.36-20.093C82.36-6.319,91.377.5,102.95.5c11.5,0,21.158-6.816,21.158-20.59V-49.842H111.967v29.82c0,5.893-3.053,9.3-8.8,9.3s-8.662-3.408-8.662-9.3v-29.82H82.36ZM163.158,0h14.129L160.815-24.708l15.833-25.134H162.874l-8.8,15.052L144.059-49.842H129.93l16.33,24.5L130.285,0h13.774l8.946-15.265Z" transform="translate(361 315)" fill="#edf2f4"/><path d="M7.476-9.772v7.756L2.352-9.772H1.078V0H2.352V-7.77L7.476,0H8.75V-9.772ZM18.2-3.85A3.745,3.745,0,0,0,14.322-7.8,3.752,3.752,0,0,0,10.444-3.85,3.725,3.725,0,0,0,14.266.126,3.8,3.8,0,0,0,18.2-3.85Zm-6.454,0a2.544,2.544,0,0,1,2.562-2.842A2.577,2.577,0,0,1,16.9-3.85,2.6,2.6,0,0,1,14.266-.994C12.936-.994,11.746-1.9,11.746-3.85ZM20.16-2.1c0,1.54.77,2.1,2.128,2.1h1.148V-1.078H22.5c-.784,0-1.064-.266-1.064-1.022V-6.622h2v-1.05h-2V-9.6H20.16v1.932h-.994v1.05h.994ZM35.266,0H36.61L33.1-9.7h-1.47L28.1,0h1.344l.784-2.17h4.256ZM34.118-3.206H30.59l1.764-4.928ZM47.11-6.888c0,1.092-.63,1.876-2.072,1.876H43.162v-3.7h1.876C46.494-8.708,47.11-7.994,47.11-6.888Zm-5.222-2.87V0h1.274V-3.99H44.7L47.026,0h1.526L46.1-4.088a2.752,2.752,0,0,0,2.324-2.8c0-1.6-1.092-2.87-3.388-2.87Zm8.036,5.894A3.69,3.69,0,0,0,53.55.126a3.2,3.2,0,0,0,2.87-1.554V0h1.288V-7.672H56.42v1.4A3.184,3.184,0,0,0,53.564-7.8,3.636,3.636,0,0,0,49.924-3.864Zm6.5.014a2.625,2.625,0,0,1-2.6,2.856,2.627,2.627,0,0,1-2.59-2.87,2.59,2.59,0,0,1,2.59-2.828A2.629,2.629,0,0,1,56.42-3.85ZM65.478,0h1.26V-4.522A2.976,2.976,0,0,0,63.6-7.812,2.834,2.834,0,0,0,61.138-6.58V-7.672H59.864V0h1.274V-4.242c0-1.652.9-2.464,2.2-2.464s2.142.8,2.142,2.366Zm2.87-3.864a3.692,3.692,0,0,0,3.64,3.99,3.151,3.151,0,0,0,2.856-1.568V0h1.288V-10.36H74.844V-6.3A3.346,3.346,0,0,0,72-7.8,3.638,3.638,0,0,0,68.348-3.864Zm6.5.014a2.625,2.625,0,0,1-2.6,2.856,2.627,2.627,0,0,1-2.59-2.87,2.59,2.59,0,0,1,2.59-2.828A2.629,2.629,0,0,1,74.844-3.85Zm10.724,0A3.745,3.745,0,0,0,81.69-7.8,3.752,3.752,0,0,0,77.812-3.85,3.725,3.725,0,0,0,81.634.126,3.8,3.8,0,0,0,85.568-3.85Zm-6.454,0a2.544,2.544,0,0,1,2.562-2.842,2.577,2.577,0,0,1,2.59,2.842A2.6,2.6,0,0,1,81.634-.994C80.3-.994,79.114-1.9,79.114-3.85ZM98.322,0h1.26V-4.522a2.969,2.969,0,0,0-3.108-3.29A2.84,2.84,0,0,0,93.758-6.1a2.887,2.887,0,0,0-2.814-1.708,2.773,2.773,0,0,0-2.422,1.246V-7.672H87.248V0h1.274V-4.228c0-1.652.882-2.478,2.17-2.478,1.26,0,2.1.8,2.1,2.366V0h1.26V-4.228c0-1.652.882-2.478,2.17-2.478,1.26,0,2.1.8,2.1,2.366Zm10.71-2.548a1.348,1.348,0,0,1-1.414,1.512c-1.008,0-1.428-.714-1.442-1.61H104.9A2.551,2.551,0,0,0,107.618.1a2.514,2.514,0,0,0,2.7-2.646v-7.21h-1.288Zm10.136-.112c0-3.612-5.264-2.044-5.264-4.564,0-1.05.826-1.6,1.876-1.568a1.767,1.767,0,0,1,1.89,1.414h1.4c-.154-1.484-1.372-2.506-3.234-2.506-1.932,0-3.234,1.092-3.234,2.7,0,3.626,5.278,1.946,5.278,4.578,0,.924-.728,1.624-1.96,1.624A1.807,1.807,0,0,1,113.9-2.6h-1.358c.028,1.61,1.414,2.7,3.374,2.7C118.034.1,119.168-1.274,119.168-2.66Zm11.2-2.226a4.805,4.805,0,0,0-4.9-4.984,4.813,4.813,0,0,0-4.9,4.984A4.813,4.813,0,0,0,125.468.1,4.805,4.805,0,0,0,130.368-4.886Zm-8.5,0a3.557,3.557,0,0,1,3.6-3.878,3.557,3.557,0,0,1,3.6,3.878,3.564,3.564,0,0,1-3.6,3.878A3.564,3.564,0,0,1,121.87-4.886Zm16.576-4.886v7.756l-5.124-7.756h-1.274V0h1.274V-7.77L138.446,0h1.274V-9.772Zm10.836,8.428-3.066-8.414h-1.358L148.54,0h1.47l3.682-9.758h-1.344ZM155.092,0h1.274V-7.672h-1.274Zm.658-8.918a.849.849,0,0,0,.84-.868.849.849,0,0,0-.84-.868.855.855,0,0,0-.868.868A.855.855,0,0,0,155.75-8.918Zm6.048,2.2A2.251,2.251,0,0,1,164.22-4.4h-4.844A2.376,2.376,0,0,1,161.8-6.72Zm3.584,4.354H164.01a2.109,2.109,0,0,1-2.156,1.414,2.412,2.412,0,0,1-2.492-2.408h6.132a6.906,6.906,0,0,0,.042-.77A3.517,3.517,0,0,0,161.854-7.8,3.651,3.651,0,0,0,158.06-3.85,3.7,3.7,0,0,0,161.854.126,3.45,3.45,0,0,0,165.382-2.366ZM168.714,0h1.316l1.848-6.09L173.726,0h1.316l2.394-7.672h-1.26L174.44-1.218l-1.862-6.454h-1.3l-1.9,6.44-1.764-6.44h-1.3Zm13.244-6.72A2.251,2.251,0,0,1,184.38-4.4h-4.844A2.376,2.376,0,0,1,181.958-6.72Zm3.584,4.354H184.17a2.109,2.109,0,0,1-2.156,1.414,2.412,2.412,0,0,1-2.492-2.408h6.132a6.906,6.906,0,0,0,.042-.77A3.517,3.517,0,0,0,182.014-7.8,3.651,3.651,0,0,0,178.22-3.85,3.7,3.7,0,0,0,182.014.126,3.45,3.45,0,0,0,185.542-2.366Zm3.108-1.806c0-1.778.924-2.324,2.142-2.324h.336V-7.812a2.584,2.584,0,0,0-2.478,1.386V-7.672h-1.274V0h1.274Z" transform="translate(354 335)" fill="#8d99ae"/></g></svg>