<svg xmlns="http://www.w3.org/2000/svg" width="126.162" height="59" viewBox="0 0 126.162 59"><g transform="translate(-308 -68)"><g transform="translate(308 68)"><path d="M121.117,166.975q-4.419-3.548-14.354-3.548H97.247a3.548,3.548,0,0,0-3.548,3.548V203.6a3.548,3.548,0,0,0,3.548,3.548h2.419a3.548,3.548,0,0,0,3.548-3.548v-6.5a3.547,3.547,0,0,1,3.548-3.548q9.935,0,14.354-3.548,4.355-3.515,4.355-11.516T121.117,166.975Zm-13.641,7.179h-.719a1.037,1.037,0,0,0-.813.245,1.911,1.911,0,0,0-.2,1.082V176.7a2.385,2.385,0,0,1-.287,1.356,1.5,1.5,0,0,1-1.024.5,1.524,1.524,0,0,1,1.024.521,2.385,2.385,0,0,1,.287,1.356v1.2a1.938,1.938,0,0,0,.2,1.094,1.035,1.035,0,0,0,.813.246h.719V184.1H106.6a3.123,3.123,0,0,1-1.947-.433,2.253,2.253,0,0,1-.5-1.725v-1.258a3.286,3.286,0,0,0-.073-.728,1.05,1.05,0,0,0-.237-.494.946.946,0,0,0-.45-.251,2.554,2.554,0,0,0-.684-.082h-.538v-1.117h.538a1.534,1.534,0,0,0,1.134-.333,1.845,1.845,0,0,0,.31-1.223V175.2a2.252,2.252,0,0,1,.5-1.725,3.091,3.091,0,0,1,1.947-.427h.877Zm7.995,4.971h-.538a1.525,1.525,0,0,0-1.14.339,1.771,1.771,0,0,0-.322,1.216v1.258a2.3,2.3,0,0,1-.485,1.725,3.111,3.111,0,0,1-1.941.433h-.877v-1.117h.708a1.043,1.043,0,0,0,.818-.251,1.88,1.88,0,0,0,.211-1.088v-1.2a2.385,2.385,0,0,1,.287-1.356,1.5,1.5,0,0,1,1.018-.521,1.439,1.439,0,0,1-1.018-.5,2.385,2.385,0,0,1-.287-1.356v-1.222a1.9,1.9,0,0,0-.2-1.076.618.618,0,0,0-.327-.193,1.89,1.89,0,0,0-.5-.059h-.708v-1.111h.877a3.08,3.08,0,0,1,1.941.427,2.3,2.3,0,0,1,.485,1.725v1.257a3.35,3.35,0,0,0,.15.948.738.738,0,0,0,.427.453,2.785,2.785,0,0,0,.886.155h.538Z" transform="translate(-93.699 -150.682)" fill="#e9eff1"/><text transform="translate(34.718 44)" fill="#edf2f4" font-size="42" font-family="Poppins-Bold, Poppins" font-weight="700"><tspan x="0" y="0">LUX</tspan></text><text transform="translate(16.162 55.887)" fill="#8d99ae" font-size="8" font-family="Poppins-Regular, Poppins"><tspan x="0" y="0">Not A Random JSON Viewer</tspan></text></g></g></svg>