<svg xmlns="http://www.w3.org/2000/svg" xmlns:xlink="http://www.w3.org/1999/xlink" width="328.067" height="287.137" viewBox="0 0 328.067 287.137"><defs><clipPath id="a"><path d="M188.536,250.308h0a2.074,2.074,0,0,0,1.717,2.557l4.645.655a2.745,2.745,0,0,0,2.987-2.16h0a2.311,2.311,0,0,0-2.313-2.875l-4.714-.136A2.484,2.484,0,0,0,188.536,250.308Z" transform="translate(-188.483 -248.35)" fill="none"/></clipPath></defs><g transform="translate(-44 -71.462)" opacity="0.8"><g transform="translate(213.574 187.603)"><g transform="translate(44.931 49.7)"><rect width="28.492" height="49.658" fill="#b0b0e2"/></g><g transform="translate(4.885)"><path d="M373.692,296.3H264.578a3.612,3.612,0,0,1-3.561-4.211l10.969-65.27a3.613,3.613,0,0,1,3.562-3.013H384.662a3.611,3.611,0,0,1,3.561,4.21l-10.969,65.27A3.613,3.613,0,0,1,373.692,296.3Z" transform="translate(-260.966 -223.81)" fill="#b0b0e2"/></g><path d="M367.617,296.3H258.5a3.613,3.613,0,0,1-3.562-4.211l10.97-65.27a3.612,3.612,0,0,1,3.562-3.013H378.587a3.612,3.612,0,0,1,3.562,4.21l-10.97,65.27A3.612,3.612,0,0,1,367.617,296.3Z" transform="translate(-254.891 -223.81)" fill="#dfdff7"/><g transform="translate(5.856 5.189)" opacity="0.71"><path d="M366.089,287.495H265.269a3.094,3.094,0,0,1-3.052-3.607l8.585-51.043a3.1,3.1,0,0,1,3.052-2.582h100.82a3.094,3.094,0,0,1,3.052,3.607l-8.585,51.043A3.1,3.1,0,0,1,366.089,287.495Z" transform="translate(-262.174 -230.263)" fill="#fff"/></g><g transform="translate(26.411 14.492)"><path d="M324.777,247.125H290.382a2.646,2.646,0,0,1,0-5.292h34.395a2.646,2.646,0,0,1,0,5.292Z" transform="translate(-287.737 -241.833)" fill="#6e32ea"/></g><g transform="translate(72.27 14.492)"><path d="M350.061,247.125h-2.645a2.646,2.646,0,1,1,0-5.292h2.645a2.646,2.646,0,0,1,0,5.292Z" transform="translate(-344.769 -241.833)" fill="#fe75d2"/></g><g transform="translate(82.853 14.492)"><path d="M363.222,247.125h-2.645a2.646,2.646,0,0,1,0-5.292h2.645a2.646,2.646,0,0,1,0,5.292Z" transform="translate(-357.931 -241.833)" fill="#fe75d2"/></g><g transform="translate(93.436 14.492)"><path d="M382.557,247.125h-8.819a2.646,2.646,0,0,1,0-5.292h8.819a2.646,2.646,0,0,1,0,5.292Z" transform="translate(-371.092 -241.833)" fill="#fe75d2"/></g><g transform="translate(24.648 25.075)"><path d="M304.063,260.285H288.189a2.645,2.645,0,0,1,0-5.291h15.873a2.645,2.645,0,1,1,0,5.291Z" transform="translate(-285.544 -254.994)" fill="#fe75d2"/></g><g transform="translate(54.632 25.075)"><path d="M335.18,260.285h-9.7a2.645,2.645,0,0,1,0-5.291h9.7a2.645,2.645,0,1,1,0,5.291Z" transform="translate(-322.834 -254.994)" fill="#6e32ea"/></g><g transform="translate(74.916 25.075)"><path d="M360.406,260.285h-9.7a2.645,2.645,0,1,1,0-5.291h9.7a2.645,2.645,0,0,1,0,5.291Z" transform="translate(-348.06 -254.994)" fill="#fe75d2"/></g><g transform="translate(96.082 25.075)"><path d="M380.556,260.285h-3.528a2.645,2.645,0,1,1,0-5.291h3.528a2.645,2.645,0,1,1,0,5.291Z" transform="translate(-374.383 -254.994)" fill="#6e32ea"/></g><g transform="translate(22.884 35.657)"><path d="M331.855,273.446H286a2.645,2.645,0,0,1,0-5.291h45.859a2.645,2.645,0,1,1,0,5.291Z" transform="translate(-283.351 -268.155)" fill="#fe75d2"/></g><g transform="translate(21.119 46.24)"><path d="M293.5,286.608h-9.7a2.646,2.646,0,0,1,0-5.292h9.7a2.646,2.646,0,0,1,0,5.292Z" transform="translate(-281.156 -281.316)" fill="#6e32ea"/></g><g transform="translate(39.639 46.24)"><path d="M316.535,286.608h-9.7a2.646,2.646,0,0,1,0-5.292h9.7a2.646,2.646,0,0,1,0,5.292Z" transform="translate(-304.188 -281.316)" fill="#6e32ea"/></g><g transform="translate(61.687 46.24)"><path d="M367.765,286.608H334.253a2.646,2.646,0,0,1,0-5.292h33.512a2.646,2.646,0,0,1,0,5.292Z" transform="translate(-331.608 -281.316)" fill="#fe75d2"/></g><g transform="translate(80.208 35.657)"><path d="M361.7,273.446h-4.409a2.645,2.645,0,1,1,0-5.291H361.7a2.645,2.645,0,1,1,0,5.291Z" transform="translate(-354.641 -268.155)" fill="#6e32ea"/></g><g transform="translate(94.317 35.657)"><path d="M378.362,273.446h-3.528a2.645,2.645,0,1,1,0-5.291h3.528a2.645,2.645,0,1,1,0,5.291Z" transform="translate(-372.188 -268.155)" fill="#6e32ea"/></g></g><g transform="translate(207.398 71.462)"><g transform="translate(0 0)"><path d="M307.179,85.613c-.018-.018-.039-.033-.058-.05s-.039-.034-.057-.051-.039-.033-.058-.051l-.057-.05-.057-.05c-.018-.018-.039-.033-.058-.051s-.038-.033-.057-.05-.039-.033-.057-.05-.039-.034-.058-.051-.038-.033-.056-.05-.039-.033-.058-.051l-.057-.05c-.018-.018-.039-.033-.058-.051l-.057-.05-.057-.05c-.018-.018-.039-.033-.058-.051s-.039-.033-.057-.05-.039-.033-.057-.051l-.058-.05c-.018-.018-.039-.033-.057-.05s-.039-.033-.057-.051-.039-.033-.058-.05-.039-.034-.057-.051-.039-.033-.057-.05-.039-.033-.057-.05l-.058-.051c-.018-.018-.039-.033-.057-.05s-.039-.033-.058-.051-.039-.033-.057-.05-.039-.033-.057-.051-.039-.033-.058-.05-.039-.033-.057-.051-.039-.033-.058-.05-.039-.033-.057-.05-.039-.033-.057-.051l-.058-.05c-.018-.018-.039-.033-.057-.051l-.057-.05c-.018-.018-.039-.033-.057-.051l-.058-.05c-.018-.018-.039-.033-.057-.05s-.039-.033-.057-.051-.039-.033-.058-.05-.039-.033-.057-.051l-.058-.05c-.018-.018-.039-.033-.057-.05s-.039-.034-.057-.051-.039-.033-.058-.05-.038-.033-.057-.051-.039-.033-.058-.05-.038-.033-.056-.05-.039-.034-.058-.051-.039-.033-.057-.051l-.058-.05c-.018-.017-.039-.033-.057-.05s-.039-.033-.057-.05-.039-.034-.058-.051-.039-.033-.057-.05-.039-.034-.057-.051-.039-.033-.058-.051l-.057-.049c-.018-.018-.039-.034-.057-.051s-.039-.033-.058-.051l-.057-.05c-.018-.018-.039-.033-.057-.05s-.039-.033-.057-.051l-.058-.05c-.019-.018-.039-.033-.057-.051l-.058-.05c-.018-.018-.039-.033-.057-.051s-.039-.032-.057-.05l-.058-.05c-.019-.018-.039-.034-.057-.051s-.039-.033-.057-.05-.039-.033-.058-.051l-.057-.05c-.018-.018-.039-.033-.058-.051s-.038-.033-.057-.05-.039-.033-.057-.05-.039-.034-.058-.051-.038-.033-.056-.05-.039-.033-.058-.051l-.057-.05c-.018-.018-.039-.033-.058-.051l-.057-.05c-.018-.018-.039-.033-.057-.05s-.039-.033-.058-.051l-.057-.05c-.018-.018-.039-.033-.057-.05s-.039-.034-.058-.051-.039-.033-.057-.05-.039-.033-.057-.051l-.058-.05c-.018-.018-.039-.033-.057-.051l-.057-.05c-.018-.018-.039-.033-.058-.051s-.039-.032-.057-.05-.039-.033-.057-.05-.039-.033-.058-.051a4.65,4.65,0,0,0-3.206-1.273h-40.52a4.677,4.677,0,0,0-4.628,4.005l-5.887,40.618a4.661,4.661,0,0,0,1.48,4.124c.018.018.039.033.057.051l.057.05.057.05c.018.018.039.033.058.051l.057.05c.019.018.039.033.058.051l.057.05c.018.018.039.033.057.05s.039.033.058.051l.057.05c.018.018.039.033.058.051l.057.05c.019.018.039.033.057.05s.039.034.058.051.038.033.057.05.039.033.057.051.039.033.058.05.038.033.056.05.039.034.058.051.039.033.057.05.039.034.058.051.039.033.057.05.039.033.057.051l.058.05c.018.018.039.033.057.051l.057.05c.018.018.039.033.058.05s.039.034.057.051.039.033.057.05.039.033.058.051l.057.05c.018.018.039.033.057.051l.058.05c.018.018.039.033.057.05s.039.033.057.051l.058.05c.018.018.039.033.057.051l.058.05c.018.018.038.033.057.05s.039.034.057.051.039.033.058.051l.057.05.057.05c.019.018.039.033.058.051s.038.033.057.05.039.033.057.05.039.034.058.051.039.033.057.051.039.032.057.049.039.034.058.051.039.033.057.051l.057.05c.018.018.039.033.058.05s.038.033.057.05.039.034.057.051.039.033.058.051l.057.05c.018.018.039.033.058.051s.038.032.056.05l.058.05c.018.018.039.034.057.051l.058.05c.019.018.039.033.057.051s.039.032.057.05.039.033.058.051l.057.05.057.05c.018.018.039.033.058.051l.057.05c.018.018.039.033.057.05s.039.034.058.051.039.033.057.05.039.033.057.051l.058.05c.018.018.039.033.057.051l.057.05c.018.018.039.033.058.05s.039.034.057.051.039.033.057.05.039.033.057.051l.058.05c.018.018.039.033.058.051l.057.05c.018.018.039.033.057.05s.039.033.057.051l.058.05c.018.018.039.033.057.051l.058.05c.018.018.038.033.057.051s.039.032.057.05.039.033.057.05.039.034.058.051.039.033.057.05.039.033.057.051l.058.05c.018.018.039.033.057.05s.039.034.057.051.039.033.058.051.039.032.057.05l.057.05a4.649,4.649,0,0,0,3.207,1.273H298.2a4.675,4.675,0,0,0,4.628-4.005l5.887-40.618C308.948,88.178,307.2,85.63,307.179,85.613Z" transform="translate(-247.21 -79.371)" fill="#172149"/><g transform="translate(0.001)"><path d="M292.407,129.341h-40.52a4.676,4.676,0,0,1-4.628-5.347l5.886-40.618a4.677,4.677,0,0,1,4.628-4.005h40.52a4.677,4.677,0,0,1,4.628,5.347l-5.887,40.617A4.676,4.676,0,0,1,292.407,129.341Z" transform="translate(-247.211 -79.371)" fill="#02ccff"/></g></g><g transform="translate(8.627 13.068)"><path d="M257.939,109.8l.334-1.892L272.612,102l-.509,2.891-9.582,3.968,8.182,3.968-.509,2.891Z" transform="translate(-257.939 -96.871)" fill="#fff"/><path d="M276.664,116.514l-1.691-.395,8.5-20.5,1.665.394Z" transform="translate(-261.276 -95.623)" fill="#fff"/><path d="M300.3,107.908l-.334,1.892-14.34,5.912.51-2.891,9.581-3.968-8.182-3.968.51-2.891Z" transform="translate(-263.364 -96.871)" fill="#fff"/></g></g><g transform="translate(265.756 132.896)"><g transform="translate(0 0)"><path d="M385.175,162.628c-.02-.019-.042-.036-.063-.055s-.042-.036-.062-.055l-.063-.055c-.02-.019-.042-.036-.062-.055s-.043-.036-.064-.055-.042-.036-.062-.055l-.063-.055c-.02-.019-.042-.036-.062-.055s-.043-.036-.063-.055-.042-.036-.063-.055l-.062-.055c-.021-.019-.043-.036-.063-.055s-.042-.036-.063-.055-.042-.036-.063-.055-.042-.036-.062-.055l-.063-.055c-.02-.019-.042-.036-.063-.055s-.042-.036-.063-.055-.042-.036-.062-.055l-.063-.055c-.02-.019-.042-.036-.063-.055l-.062-.055-.063-.055-.063-.055c-.02-.019-.042-.036-.062-.055s-.043-.036-.063-.055-.043-.036-.063-.055l-.063-.055-.062-.055c-.02-.019-.043-.036-.063-.055s-.042-.036-.063-.055-.042-.036-.063-.055l-.062-.055c-.02-.018-.042-.035-.063-.055l-.063-.055c-.02-.019-.042-.036-.062-.055l-.063-.055c-.02-.019-.042-.036-.063-.055s-.042-.036-.063-.055-.042-.036-.062-.055l-.063-.055c-.02-.019-.042-.036-.063-.055s-.042-.036-.063-.055-.042-.036-.062-.055l-.063-.055-.062-.055c-.02-.018-.043-.035-.063-.055l-.063-.055c-.02-.019-.042-.036-.063-.055l-.062-.055-.063-.055c-.02-.019-.042-.036-.063-.055s-.042-.036-.062-.055l-.063-.055c-.02-.019-.042-.036-.063-.055s-.042-.036-.063-.055-.042-.036-.062-.055l-.063-.055c-.02-.019-.042-.035-.062-.055l-.064-.055c-.02-.019-.042-.036-.062-.055l-.063-.055c-.02-.018-.042-.035-.063-.055l-.062-.055c-.02-.019-.043-.036-.063-.055s-.042-.036-.063-.055l-.062-.055-.063-.055-.063-.055c-.02-.019-.042-.036-.063-.055l-.062-.055c-.02-.018-.042-.035-.063-.054s-.042-.037-.063-.055-.042-.036-.062-.055l-.063-.055c-.02-.018-.042-.035-.063-.055l-.062-.055-.063-.055-.063-.055-.063-.055c-.02-.018-.042-.035-.062-.055l-.063-.055c-.02-.019-.042-.036-.063-.055l-.062-.054c-.02-.019-.043-.036-.063-.055l-.063-.055c-.02-.019-.042-.036-.063-.055l-.062-.055c-.02-.018-.043-.035-.063-.055l-.063-.055c-.02-.019-.042-.036-.063-.055l-.062-.055-.063-.055c-.02-.018-.042-.035-.063-.055l-.063-.055-.062-.055-.062-.054c-.021-.019-.043-.036-.063-.055l-.063-.055c-.02-.019-.043-.036-.063-.055a5.063,5.063,0,0,0-3.493-1.386h-44.14a5.094,5.094,0,0,0-5.042,4.363l-6.413,44.246a5.076,5.076,0,0,0,1.611,4.492c.02.019.042.036.062.055s.043.036.063.055.042.036.063.055.042.036.063.055.042.036.062.055.043.036.063.055.042.036.062.055.043.036.063.055.043.036.063.055.043.036.063.055.042.036.063.055.042.036.062.055.043.036.063.055.042.036.063.055.042.036.062.055.043.036.063.055.043.036.063.055.042.036.063.055.042.036.062.055.042.036.063.055.042.036.063.055.042.036.062.055.043.036.063.055.042.036.063.055.042.036.063.055.042.036.063.055.042.036.062.055.042.036.063.055.042.036.062.055.043.036.063.055.042.036.063.055.042.036.062.055.043.036.063.055.043.036.063.055.042.036.063.055.042.036.062.055.043.036.063.055.042.036.063.055.042.036.063.055.042.036.062.055.043.036.063.055.042.036.063.055.042.036.063.055.041.036.062.055l.063.055c.02.019.042.036.062.055s.043.036.063.055.043.036.063.055.042.036.063.055.042.036.062.055.043.036.063.055.042.036.063.055.042.036.062.055.043.036.063.055.042.036.063.055.042.036.063.055.042.036.062.055l.063.055c.02.019.042.036.063.055s.042.036.063.055.042.036.062.055.042.036.063.055.042.036.063.055.042.036.063.055.042.036.062.055.042.036.063.055.042.036.062.055.043.036.063.055.042.036.063.055l.063.055c.02.019.042.036.062.055s.043.036.063.055.042.036.063.055.042.036.062.055.043.036.063.055.042.036.063.055.042.036.063.055.042.036.062.055.043.036.063.055.042.036.063.055.042.036.063.055.042.036.062.055l.063.055c.02.019.042.036.063.055s.042.036.063.055.042.036.062.055.042.036.063.055.042.036.062.055.043.036.063.055.043.036.063.055.042.036.063.055.042.036.062.055.043.036.063.055.042.036.063.055.042.036.062.055.043.036.063.055.042.036.063.055.042.036.063.055.042.036.062.055.043.036.063.055a5.063,5.063,0,0,0,3.493,1.386h44.139a5.094,5.094,0,0,0,5.042-4.363l6.413-44.246A5.077,5.077,0,0,0,385.175,162.628Z" transform="translate(-319.786 -155.774)" fill="#162048"/><path d="M369.021,210.208h-44.14a5.1,5.1,0,0,1-5.042-5.825l6.413-44.246a5.094,5.094,0,0,1,5.042-4.363h44.14a5.093,5.093,0,0,1,5.042,5.824l-6.413,44.246A5.1,5.1,0,0,1,369.021,210.208Z" transform="translate(-319.786 -155.774)" fill="#8585ff"/></g><g transform="translate(15.071 12.719)"><path d="M341.626,201.063a2.538,2.538,0,0,1-2.6-1.36,6.343,6.343,0,0,1-.2-3.651l.937-5.31a6.845,6.845,0,0,0,.128-1.477,2.26,2.26,0,0,0-.2-.913,1,1,0,0,0-.465-.465,1.681,1.681,0,0,0-.692-.133l.5-2.855a2.006,2.006,0,0,0,.737-.133,1.64,1.64,0,0,0,.63-.465,3.216,3.216,0,0,0,.527-.913,7.565,7.565,0,0,0,.392-1.477l.937-5.31a7.986,7.986,0,0,1,1.49-3.651,3.713,3.713,0,0,1,3.078-1.361h1.924l-.462,2.621h-1.061a1.531,1.531,0,0,0-1.393.747,5.39,5.39,0,0,0-.668,1.909l-.983,5.576a7.147,7.147,0,0,1-.5,1.709,4.685,4.685,0,0,1-.72,1.162,3.207,3.207,0,0,1-.8.68,2.494,2.494,0,0,1-.75.3l-.01.066a1.735,1.735,0,0,1,.643.3,1.91,1.91,0,0,1,.561.681,3.2,3.2,0,0,1,.309,1.161,6.294,6.294,0,0,1-.1,1.709l-.983,5.576a4.5,4.5,0,0,0-.006,1.908,1.021,1.021,0,0,0,1.131.747h1.062l-.463,2.621Z" transform="translate(-338.529 -171.592)" fill="#fff"/><path d="M363.232,198.442h1.062a1.56,1.56,0,0,0,1.425-.747,5.381,5.381,0,0,0,.669-1.908l.983-5.576a7.145,7.145,0,0,1,.5-1.709,5.064,5.064,0,0,1,.7-1.161,2.969,2.969,0,0,1,.783-.681,2.528,2.528,0,0,1,.75-.3l.011-.066a1.7,1.7,0,0,1-.644-.3,1.764,1.764,0,0,1-.544-.68,3.464,3.464,0,0,1-.294-1.162,6.355,6.355,0,0,1,.1-1.709l.983-5.576a4.5,4.5,0,0,0,0-1.909,1.044,1.044,0,0,0-1.163-.747H367.5l.462-2.621h1.959a2.54,2.54,0,0,1,2.6,1.361,6.355,6.355,0,0,1,.2,3.651l-.937,5.31a6.8,6.8,0,0,0-.128,1.477,2.489,2.489,0,0,0,.188.913.9.9,0,0,0,.466.465,1.763,1.763,0,0,0,.706.133l-.5,2.855a2.146,2.146,0,0,0-.753.133,1.5,1.5,0,0,0-.63.465,3.518,3.518,0,0,0-.51.913,7.469,7.469,0,0,0-.392,1.477l-.937,5.31A7.972,7.972,0,0,1,367.8,199.7a3.71,3.71,0,0,1-3.076,1.36h-1.959Z" transform="translate(-343.278 -171.592)" fill="#fff"/></g></g><g transform="translate(44 170.87)"><g transform="translate(280.541 97.674)"><g transform="translate(16.804 2.403)"><path d="M422.136,344.146h-8.344V327.46h8.344a8.343,8.343,0,0,1,0,16.686Zm-5.932-2.412h5.932a5.931,5.931,0,1,0,0-11.862H416.2Z" transform="translate(-413.792 -327.46)" fill="#ff4caa"/></g><path d="M0,0H24.082a0,0,0,0,1,0,0V14.887A12.041,12.041,0,0,1,12.041,26.927h0A12.041,12.041,0,0,1,0,14.887V0A0,0,0,0,1,0,0Z" fill="#ff4caa"/></g><g transform="translate(88.454 10.024)"><g transform="translate(0 24.531)"><path d="M166.617,294.662a10.749,10.749,0,0,1-12.5-12.094l3.838-32.376c.835-5.871,6.218-4.162,12.091-3.328a10.742,10.742,0,0,1,9.122,12.148L175.383,285.6A10.747,10.747,0,0,1,166.617,294.662Z" transform="translate(-154.006 -245.975)" fill="#e69779"/></g><g transform="translate(4.162 25.189)"><path d="M159.182,253.32c.836-5.874,6-7.126,11.877-6.3a10.743,10.743,0,0,1,9.121,12.149l-2.141,15.049S161.71,269.043,159.182,253.32Z" transform="translate(-159.182 -246.793)" fill="#172149"/></g><g transform="translate(3.771)"><path d="M179.091,263.773a17.388,17.388,0,0,1-20.22-19.558l1.967-13.821a17.371,17.371,0,0,1,34.4,4.893l-1.968,13.821A17.374,17.374,0,0,1,179.091,263.773Z" transform="translate(-158.696 -215.467)" fill="#e69779"/></g><g transform="translate(3.351)"><path d="M195.132,235.288a17.371,17.371,0,0,0-34.4-4.893l-2.562,18.843s12.171-.171,17.277-10.154C181.1,228.05,195.132,235.288,195.132,235.288Z" transform="translate(-158.174 -215.467)" fill="#172149"/></g><g transform="translate(12.47 20.775)"><path d="M174.323,252.44l5.54.789,1.577-11.079-5.54-.789a5.6,5.6,0,0,0-6.328,4.751h0A5.6,5.6,0,0,0,174.323,252.44Z" transform="translate(-169.515 -241.304)" fill="#e69779"/><g transform="translate(2.565 3.187)"><path d="M173.528,246.7a1.5,1.5,0,0,1,1.742,1.526c0,.915,1.426,1.057,1.426.135a2.967,2.967,0,0,0-3.417-3.072c-.916.106-.664,1.516.249,1.41Z" transform="translate(-172.705 -245.267)" fill="#172149"/></g></g><g transform="translate(27.723 22.575)"><g transform="translate(4.423 12.089)"><path d="M198.085,261.3a.614.614,0,0,1-.169.1,2.98,2.98,0,0,1-3.889-1.915.68.68,0,0,1,.359-.866.616.616,0,0,1,.8.4,1.747,1.747,0,0,0,2.28,1.124.616.616,0,0,1,.8.4A.705.705,0,0,1,198.085,261.3Z" transform="translate(-193.985 -258.576)" fill="#172149"/></g><g transform="translate(1.922)"><path d="M198.208,244.98a.65.65,0,0,1-.2.029l-6.555-.153a.6.6,0,0,1-.575-.671.706.706,0,0,1,.7-.642l6.555.153a.6.6,0,0,1,.575.671A.717.717,0,0,1,198.208,244.98Z" transform="translate(-190.874 -243.542)" fill="#172149"/></g><g transform="translate(0 3.866)"><path d="M188.536,250.308h0a2.074,2.074,0,0,0,1.717,2.557l4.645.655a2.745,2.745,0,0,0,2.987-2.16h0a2.311,2.311,0,0,0-2.313-2.875l-4.714-.136A2.484,2.484,0,0,0,188.536,250.308Z" transform="translate(-188.483 -248.35)" fill="#fff"/><g clip-path="url(#a)"><g transform="translate(4.554 -0.422)"><path d="M199.967,251.2a3.22,3.22,0,0,1-3.505,2.534,2.714,2.714,0,0,1-2.246-3.346,3.22,3.22,0,0,1,3.505-2.534A2.714,2.714,0,0,1,199.967,251.2Z" transform="translate(-194.147 -247.825)" fill="#172149"/></g></g></g></g><g transform="translate(37.499 23.86)"><path d="M202.877,245.14l1.955,8.85-4.19-.543Z" transform="translate(-200.641 -245.14)" fill="#e69779"/></g></g><g transform="translate(233.901 92.677)"><path d="M334.89,318.257s31.076,2.249,36.775,31.555H334.89Z" transform="translate(-334.89 -318.257)" fill="#e69779"/></g><g transform="translate(158.78 159.601)"><path d="M335.452,428.929H241.466V401.487h66.545a27.442,27.442,0,0,1,27.441,27.442Z" transform="translate(-241.466 -401.487)" fill="#172149"/></g><g transform="translate(256.289 109.846)"><path d="M371.851,354.092a26.64,26.64,0,0,0-9.118-13.855l.52-.627a27.448,27.448,0,0,1,9.389,14.288Z" transform="translate(-362.733 -339.61)" fill="#01265b"/></g><g transform="translate(251.457 113.823)"><path d="M362.633,355.061a20.242,20.242,0,0,0-5.909-9.915l.56-.59a21.036,21.036,0,0,1,6.139,10.311Z" transform="translate(-356.724 -344.556)" fill="#01265b"/></g><g transform="translate(52.408 62.527)"><path d="M290.67,343.154h-55.6a16.116,16.116,0,0,1-9.175-2.865L186.467,313H143.577l3.891,30.915a16.122,16.122,0,1,1-31.991,4.028L109.3,298.9a16.122,16.122,0,0,1,16-18.135h66.2a16.121,16.121,0,0,1,9.175,2.866L240.1,310.911H290.67Z" transform="translate(-109.177 -280.761)" fill="#207fff"/></g><g transform="translate(9.362 123.825)"><g transform="translate(272.853 5.946)"><rect width="0.814" height="62.372" transform="translate(0 0.319) rotate(-23.051)" fill="#01265b"/></g><g transform="translate(13.165 5.947)"><rect width="62.372" height="0.814" transform="translate(0 57.39) rotate(-66.945)" fill="#01265b"/></g><rect width="309.344" height="12.211" fill="#f3dcf8"/></g><g transform="translate(45.821 63.556)"><path d="M236.286,405.87s-30.207-49.4-36.961-99.431a28.335,28.335,0,0,0-28.149-24.4H136.089a28.443,28.443,0,0,0-26.953,19.366c-8.168,24.234-16.411,67.135,8.529,104.806Z" transform="translate(-100.985 -282.041)" fill="#207fff"/></g><g transform="translate(25.705 79.223)"><g transform="translate(19.315)"><path d="M131.191,410.031s-35.309-33.2-30.8-100.618a8.456,8.456,0,0,1,8.436-7.887h64.209a8.436,8.436,0,0,1,8.439,8.918c-4.079,66.725,30.87,99.587,30.87,99.587Z" transform="translate(-99.989 -301.526)" fill="#172149"/></g><path d="M107.17,410.031s-35.309-33.2-30.8-100.618a8.456,8.456,0,0,1,8.436-7.887H149.01a8.435,8.435,0,0,1,8.438,8.918c-4.078,66.725,30.87,99.587,30.87,99.587Z" transform="translate(-75.968 -301.526)" fill="#b0b0e2"/></g><g transform="translate(224.184 92.677)"><rect width="0.814" height="31.554" fill="#01265b"/></g><g transform="translate(143.137 91.154)"><path d="M229.246,343.387c-.032-.124-3.261-12.5-7.234-26.8l.785-.219c3.975,14.311,7.205,26.693,7.238,26.817Z" transform="translate(-222.012 -316.364)" fill="#01265b"/></g><g transform="translate(0 186.915)"><rect width="328.067" height="0.813" fill="#01265b"/></g><g transform="translate(81.177 4.371)"><path d="M188.412,220.147c-5.532-8.67-28.313-20.927-40.2-.8-10.453,17.69,7.639,28.545,7.639,28.545s2.01-10.051,6.031-13.267,15.278-8.845,15.278-8.845Z" transform="translate(-144.956 -208.436)" fill="#172149"/></g><g transform="translate(58.698)"><circle cx="15.278" cy="15.278" r="15.278" fill="#172149"/></g><g transform="translate(43.973 18.494)"><path d="M137.535,226c-3.364,10.73-12.428,16.277-21.159,22.312-9.6,6.637-18.738,15.8-17.591,28.447a25.469,25.469,0,0,0,18.793,22.249,43.235,43.235,0,0,0,34.6-5.422q.569-.371,1.065-.72c4.616-3.235,8.544-7.789,9.9-13.262,1.3-5.276.115-10.85-1.621-16a115.915,115.915,0,0,1-4.106-15.857S129.551,251.461,137.535,226Z" transform="translate(-98.687 -226)" fill="#172149"/></g><g transform="translate(43.823 110.959)"><rect width="43.511" height="0.814" fill="#01265b"/></g><g transform="translate(43.823 127.041)"><rect width="43.511" height="0.814" fill="#01265b"/></g></g></g></svg>