<svg xmlns="http://www.w3.org/2000/svg" width="350.12" height="293.79" viewBox="0 0 350.12 293.79"><g transform="translate(-7.473 -22.732)" opacity="0.8"><g transform="translate(7.473 22.732)"><ellipse cx="139.184" cy="7.322" rx="139.184" ry="7.322" transform="translate(38.639 279.147)" fill="#a6a6e2" opacity="0.16"/><path d="M191.312,323.2c-31.8-.474-62.847,6.4-86.547-10.19-16.821-11.772-24.071-35.515-16.695-54.674,3.509-9.115,10.019-17.855,8.752-27.538-1.683-12.854-15.6-19.612-24.718-28.822a45.292,45.292,0,0,1,11.889-72.367c7.681-3.848,16.359-5.467,23.882-9.616,17.615-9.719,25.12-30.668,37.7-46.369a82.53,82.53,0,0,1,36.743-26.072c15.51-5.466,34.725-5.355,46.286,6.341,6.781,6.861,9.786,16.462,13.554,25.343s9.224,18.008,18.257,21.4c8.018,3.009,16.922.792,25.292-1.026,15.181-3.3,31.229-5.146,46.082-.593s28.2,16.847,29.9,32.29c2.438,22.261-18.858,42.653-14.523,64.624,2.016,10.22,9.252,18.455,15.319,26.922,8.826,12.32,15.79,26.962,14.566,42.068-1.244,15.343-10.966,29.077-23.368,38.195s-27.185,14.647-42.2,18.051c-32.229,7.309-28.618,1.006-120.166,2.035" transform="translate(-38.074 -44.051)" fill="#aab9e9" opacity="0.11"/><g transform="translate(111.866 53.867)"><g transform="translate(25.962 13.943)"><path d="M208.447,205c-4.134-16.337-5.924-35.3,1.7-50.533,1.159-2.316,2.5-4.543,3.833-6.768L225.4,128.678a75.027,75.027,0,0,1,2.45,28.121c-1.78,17.3-9.536,33.641-19.406,48.2" transform="translate(-204.888 -128.678)" fill="#032035"/><path d="M219.959,154.23q-6.147,24.088-10.213,48.572a95.487,95.487,0,0,1-1.349-16.1,82.541,82.541,0,0,1,2.388-17.821.09.09,0,0,0-.174-.049c-3.416,11.378-4.439,24.366-1.4,35.874a.38.38,0,0,0,.187.248c-.111.684-.223,1.367-.332,2.051a.437.437,0,0,0-.019.121c-.1.631-.208,1.262-.306,1.894-.084.542.788.553.872.017.087-.562.188-1.123.277-1.686,6.735-11.458,11.438-24.942,11.68-38.183,0-.119-.171-.118-.186,0-1.717,12.612-4.886,24.392-11.067,35.6q4.094-25.381,9.809-50.494C220.149,154.171,219.986,154.124,219.959,154.23Z" transform="translate(-205.389 -133.744)" fill="#abb8ec"/></g><g transform="translate(0)"><path d="M201.8,202.44l-.6-.632c-17.882-18.742-27.494-36.9-28.567-53.955-.195-3.094-.151-6.24-.111-9.283l.372-27.293.644.638a92.291,92.291,0,0,1,19.406,28.066c7.56,16.938,10.56,37.66,8.918,61.588Zm-28.163-89.334-.348,25.473c-.041,3.03-.083,6.161.11,9.227,1.049,16.68,10.384,34.452,27.75,52.834,1.5-23.432-1.5-43.729-8.911-60.346A91.505,91.505,0,0,0,173.641,113.106Z" transform="translate(-172.488 -111.277)" fill="#abb8ec"/><g transform="translate(6.047 25.572)"><path d="M180.909,143.31q8.085,28.656,18.546,56.535a117.74,117.74,0,0,1-11.008-16.028,100.948,100.948,0,0,1-8.2-19.966.107.107,0,0,0-.208.048c3.293,13.829,10.006,27.969,20.007,38.242a.458.458,0,0,0,.34.152c.295.777.588,1.554.885,2.33a.528.528,0,0,0,.052.137c.275.716.541,1.436.818,2.152.237.615,1.14.127.9-.482-.246-.637-.477-1.28-.722-1.917.067-15.809-3.163-32.571-10.83-46.529a.109.109,0,0,0-.193.1c5.776,14.145,9.563,28.252,9.916,43.487q-10.968-28.831-20.109-58.309C181.069,143.14,180.873,143.184,180.909,143.31Z" transform="translate(-180.035 -143.191)" fill="#abb8ec"/></g></g></g><g transform="translate(0 217.374)"><g transform="translate(43.684)"><path d="M125.472,383.622c-13.95-9.456-27.893-22.432-32.324-38.881-.673-2.5-1.155-5.054-1.636-7.6l-4.114-21.8a75.032,75.032,0,0,1,20.525,19.379c10.172,14.109,15.24,31.47,17.549,48.91" transform="translate(-87.398 -315.333)" fill="#032035"/><path d="M98.85,339.334q11.421,22.082,24.661,43.075A95.5,95.5,0,0,1,111.8,371.282a82.552,82.552,0,0,1-10.064-14.9.09.09,0,0,0-.162.078c5.012,10.771,12.882,21.154,22.8,27.73a.379.379,0,0,0,.3.062q.557.876,1.115,1.752a.4.4,0,0,0,.066.1c.345.539.684,1.081,1.03,1.619.3.462.957-.111.662-.566-.308-.478-.606-.965-.913-1.444-2.587-13.036-8.037-26.236-16.66-36.288-.077-.091-.2.026-.14.121,7.1,10.563,12.565,21.469,15.4,33.953q-13.814-21.682-26.24-44.241C98.953,339.164,98.8,339.237,98.85,339.334Z" transform="translate(-89.672 -320.079)" fill="#abb8ec"/></g><g transform="translate(0 20.212)"><path d="M115.081,389.44l-.872-.072C88.391,387.256,69.144,380.084,57,368.054c-2.2-2.182-4.263-4.561-6.255-6.861L32.88,340.557l.9.048a92.306,92.306,0,0,1,33.156,8.064c16.908,7.627,32.925,21.112,47.605,40.079ZM34.653,341.427l16.675,19.26c1.983,2.292,4.034,4.659,6.216,6.821C69.416,379.27,88.2,386.34,113.4,388.527c-14.455-18.5-30.188-31.673-46.774-39.156A91.527,91.527,0,0,0,34.653,341.427Z" transform="translate(-32.88 -340.557)" fill="#abb8ec"/><g transform="translate(21.901 14.68)"><path d="M60.258,359.059q25.09,16.031,51.439,29.9a117.729,117.729,0,0,1-18.88-4.656,100.9,100.9,0,0,1-19.4-9.462c-.116-.072-.236.1-.123.174,11.654,8.141,26.069,14.241,40.37,15.267a.458.458,0,0,0,.356-.112q1.1.577,2.21,1.152a.517.517,0,0,0,.13.068c.682.353,1.359.713,2.042,1.063.587.3.936-.663.357-.961-.608-.312-1.208-.639-1.815-.953-10.46-11.854-24.015-22.229-39.023-27.559a.11.11,0,0,0-.076.205c13.717,6.727,25.925,14.747,36.317,25.894Q86.8,374.837,60.375,358.893C60.263,358.827,60.146,358.988,60.258,359.059Z" transform="translate(-60.213 -358.877)" fill="#abb8ec"/></g></g></g><g transform="translate(81.757 120.684)"><g transform="translate(1.248 3.372)"><path d="M267.915,198.872" transform="translate(-162.59 -198.872)" fill="#9494d6"/><g transform="translate(0 4.608)"><path d="M156.175,252.787c-4.733,3.706-1.059.842.145.006,2.073-1.442,4.2-2.8,6.365-4.106q5-3.016,10.22-5.629,3.091-1.553,6.247-2.973c.785-.353,4.4-2.112,1.158-.536,1.332-.648,2.782-1.142,4.162-1.676a160.7,160.7,0,0,1,16.375-5.349q4.774-1.28,9.623-2.256,2.29-.462,4.594-.852.936-.159,1.875-.306t1.9-.284q-2.216.286-.19.026a156.586,156.586,0,0,1,21.377-1.1q5.719.121,11.416.7c.929.094,1.855.2,2.782.306,3.588.4-1.288-.208.865.116,2.293.345,4.577.732,6.852,1.179,21.425,4.208,39.638,12.516,57.835,24.536,5.208,3.441,12.781,1.031,15.808-4.145,3.3-5.646,1.075-12.359-4.145-15.808-31.768-20.984-69.638-32.892-107.888-29.422a171.586,171.586,0,0,0-70.032,22.047,116.237,116.237,0,0,0-13.677,9.182c-4.917,3.85-4.036,12.3,0,16.339,4.855,4.855,11.41,3.861,16.34,0Z" transform="translate(-136.47 -204.623)" fill="#9494d6"/></g><g transform="translate(38.431 56.686)"><path d="M201.793,308.078a67.047,67.047,0,0,1,8.132-5.124q2.273-1.26,4.61-2.4.975-.476,1.958-.93c.619-.285,3.883-1.652.764-.381a102.423,102.423,0,0,1,12.349-4.2q3.252-.864,6.564-1.486c.489-.091,4.695-.727,1.887-.365,1.366-.176,2.739-.312,4.113-.417q3.731-.284,7.478-.216,2.212.041,4.417.209c.417.032,4.772.569,2.577.233,13.229,2.022,23.373,6.909,34.232,15.075,4.991,3.752,12.915.8,15.808-4.145,3.458-5.912.858-12.046-4.145-15.808A91.452,91.452,0,0,0,225.292,272.3c-12.183,2.969-25.083,8.168-35.162,15.829-4.959,3.77-7.565,9.96-4.145,15.808,2.857,4.884,10.809,7.944,15.808,4.145Z" transform="translate(-184.432 -269.615)" fill="#9494d6"/></g><circle cx="22.112" cy="22.112" r="22.112" transform="translate(79.467 108.911)" fill="#9494d6"/></g><g transform="translate(0)"><path d="M266.358,194.664" transform="translate(-161.032 -194.664)" fill="#abb8ec"/><g transform="translate(0 4.608)"><path d="M154.617,248.58c-4.733,3.706-1.059.842.145,0,2.073-1.441,4.2-2.8,6.365-4.106q5-3.016,10.22-5.628,3.091-1.554,6.247-2.973c.785-.353,4.4-2.112,1.158-.536,1.332-.649,2.782-1.143,4.162-1.676a160.9,160.9,0,0,1,16.375-5.349q4.774-1.279,9.623-2.256,2.291-.46,4.594-.851.936-.159,1.875-.306t1.9-.284q-2.216.286-.19.026a156.592,156.592,0,0,1,21.377-1.1q5.718.123,11.415.7c.929.094,1.855.2,2.782.306,3.588.4-1.288-.209.865.115,2.292.346,4.576.732,6.851,1.179,21.425,4.208,39.638,12.516,57.835,24.537,5.208,3.44,12.781,1.03,15.808-4.145,3.3-5.647,1.075-12.359-4.145-15.808-31.768-20.984-69.638-32.892-107.888-29.422a171.588,171.588,0,0,0-70.032,22.046,116.168,116.168,0,0,0-13.676,9.183c-4.918,3.849-4.037,12.3,0,16.339,4.854,4.855,11.409,3.86,16.339,0Z" transform="translate(-134.912 -200.415)" fill="#abb8ec"/></g><g transform="translate(38.431 56.685)"><path d="M200.235,303.87a67.145,67.145,0,0,1,8.132-5.124q2.273-1.258,4.61-2.4.975-.475,1.958-.929c.619-.285,3.883-1.652.764-.381a102.321,102.321,0,0,1,12.349-4.2q3.252-.864,6.564-1.486c.489-.091,4.695-.728,1.887-.365,1.366-.176,2.739-.312,4.113-.417q3.732-.284,7.479-.217,2.21.042,4.416.209c.417.032,4.772.569,2.577.234,13.23,2.022,23.373,6.909,34.233,15.075,4.99,3.753,12.914.8,15.807-4.144,3.458-5.912.858-12.046-4.144-15.808a91.451,91.451,0,0,0-77.246-15.829c-12.182,2.968-25.082,8.168-35.162,15.829-4.959,3.769-7.565,9.96-4.145,15.808,2.857,4.884,10.81,7.943,15.808,4.144Z" transform="translate(-182.874 -265.407)" fill="#abb8ec"/></g><circle cx="22.112" cy="22.112" r="22.112" transform="translate(79.467 108.911)" fill="#abb8ec"/></g></g><g transform="translate(182.184 57.054)"><path d="M308,184.506c1.484-.248,4.745-.353,6.243-.5a6.585,6.585,0,0,1,4.337.867,4.545,4.545,0,0,1,1.89,2.873c.073.378-.069.933-.449.868-.2-.034-.316-.238-.424-.41a3.771,3.771,0,0,0-2.222-1.522,11.191,11.191,0,0,0-2.732-.3,1.815,1.815,0,0,0-1.062.19,5.169,5.169,0,0,0-.627.667,2.565,2.565,0,0,1-1.831.508,14.827,14.827,0,0,1-4.1-.611" transform="translate(-269.538 -128.908)" fill="#f9d3cf"/><g transform="translate(17.4 59.429)"><path d="M366.977,224.527a6.714,6.714,0,0,1,3.656,6.135c-.013.318-.021.7.241.88a.88.88,0,0,0,.437.117,25.881,25.881,0,0,0,16.252-4.167c-3.034-.44-4.625.006-7.539-.945a25.256,25.256,0,0,1-9.24-5.592" transform="translate(-298.854 -195.688)" fill="#f9d3cf"/><path d="M371.4,230.5a16.977,16.977,0,0,0,8.7-1.623c.548-.305,1.063-.986,1.316-1.081a20.54,20.54,0,0,1,2.943.093,20.009,20.009,0,0,0,7.477-1.25c.566-.21,1.264-.421,1.689.006.521.523.138,1.486-.357,2.071-1.64,1.94-4.12,2.726-6.46,3.421l-10.478,3.115a11,11,0,0,1-2.433.527,2.255,2.255,0,0,1-2.116-.831,2.935,2.935,0,0,1-.345-1.333,15.133,15.133,0,0,1,.068-3.117" transform="translate(-299.709 -196.77)" fill="#032035"/><path d="M349.971,219.455a14.921,14.921,0,0,0,5.415-5.635L331,196.492a24.129,24.129,0,0,0-4.337-2.644,23.614,23.614,0,0,0-6.524-1.453q-16.313-2-32.733-2.942a5.022,5.022,0,0,0-2.785.376,4.418,4.418,0,0,0-1.47,1.608c-.865,1.4-1.548,3.115-.991,4.664a5.768,5.768,0,0,0,2.526,2.671c4.583,2.934,10,4.211,15.3,5.44,4.941,1.145,4.168.479,9.043-.92,2.859-.82,10.5-.346,13.462-.1,2.462.205,5.141,2.124,7.1,3.635,6.34,4.9,12.925,9.694,20.382,12.628" transform="translate(-281.959 -189.422)" fill="#031d2d"/></g><g transform="translate(4.678 59.804)"><path d="M320.292,259.277c.633,2.437-1.493,8.627-3.462,10.2-.248.2-.542.441-.509.757a.886.886,0,0,0,.2.408,25.878,25.878,0,0,0,13.768,9.587c-1.648-2.584-3.025-3.5-4.208-6.326a14.6,14.6,0,0,1-.892-10.249" transform="translate(-276.065 -203.678)" fill="#f9d3cf"/><path d="M317.251,270.91a16.977,16.977,0,0,0,6.909,5.526c.589.216,1.441.161,1.677.291a20.408,20.408,0,0,1,1.852,2.289,19.994,19.994,0,0,0,5.829,4.846c.529.292,1.144.682,1.1,1.284-.055.736-1.035,1.075-1.8,1.082-2.541.025-4.755-1.341-6.81-2.658l-9.2-5.9a11.009,11.009,0,0,1-1.988-1.5,2.256,2.256,0,0,1-.752-2.145,2.944,2.944,0,0,1,.784-1.133,15.139,15.139,0,0,1,2.405-1.983" transform="translate(-275.603 -205.99)" fill="#032035"/><path d="M266.082,196.188a16.531,16.531,0,0,0,7.187,7.482,28.551,28.551,0,0,0,6.651,2.274c10.477,2.518,21.428,3.5,31.3,7.8a5.873,5.873,0,0,1,1.763,1.044,4.354,4.354,0,0,1,1.122,3.5,16.95,16.95,0,0,1-.921,3.678c-2.794,8.948-2.038,18.76-5.213,27.58a1.344,1.344,0,0,0-.087,1.03,1.294,1.294,0,0,0,.761.538,47.324,47.324,0,0,0,5.85,1.8,1.32,1.32,0,0,0,.912-.008,1.335,1.335,0,0,0,.528-.79q5.452-15.286,9.49-31.028a38.831,38.831,0,0,0,1.511-8.829,6.279,6.279,0,0,0-.8-3.656,7.318,7.318,0,0,0-3.086-2.233,350.708,350.708,0,0,0-40.641-16.483" transform="translate(-266.082 -189.89)" fill="#032035"/></g><g transform="translate(8.721)"><path d="M280.411,138.735a11.956,11.956,0,0,0,0,8.45,33.526,33.526,0,0,0-9.281-6.709,21.6,21.6,0,0,0,6.306-12.329" transform="translate(-271.128 -117.816)" fill="#efc8c5"/><g transform="translate(3.138)"><path d="M290.828,118.527c2.093.408,3.424,2.543,3.874,4.628a13.439,13.439,0,0,1-1.8,9.489,24.034,24.034,0,0,1-6.8,7.079,1.434,1.434,0,0,1-2.162-.207,23.6,23.6,0,0,1-3.894-4.007,7.01,7.01,0,0,1-1.409-2.667,8.232,8.232,0,0,1,0-2.667,25.109,25.109,0,0,1,1-5.409,8.427,8.427,0,0,1,3.155-4.4" transform="translate(-275.738 -115.905)" fill="#f9d3cf"/><path d="M295.281,117.684c-1.39-.352-2.843-.38-4.248-.669-2.483-.511-4.831-1.838-7.365-1.756-3.3.1-6.4,2.41-7.43,8.869-.091.282-.187.561-.293.833a14.217,14.217,0,0,0-.8,2.151,7.484,7.484,0,0,0,1.275,5.134c1.658-.177,2.881-1.833,3.232-3.463.224-1.039.035-2.176.82-3.055a1.187,1.187,0,0,1,1.6-.19c.8.655.088,1.976.316,2.993a23.926,23.926,0,0,1,2.143-2.042c1.454-.985,3.368-.9,5.1-.636a13.177,13.177,0,0,0,5.224.253c.6-.154,1.176-.41,1.775-.583a13.212,13.212,0,0,1,5.858.118C302.394,121.871,298.249,118.435,295.281,117.684Z" transform="translate(-275.045 -115.254)" fill="#032035"/></g></g><g transform="translate(0 21.224)"><path d="M270.134,141.742c1.627,2.229,4.166,3.571,6.572,4.923a2.049,2.049,0,0,1,1.35,1.83c.482,2.735.966,5.473,1.241,8.236.393,3.93.367,7.894.779,11.823a27.036,27.036,0,0,0,3.34,11.268c-3.22.588-5.85,2.893-8.938,3.975-1.4.491-2.881.725-4.283,1.214-1.906.664-3.729,1.81-5.748,1.763a.935.935,0,0,1-.566-.15,1.031,1.031,0,0,1-.293-.623,172.619,172.619,0,0,1-3.068-17.178,36.588,36.588,0,0,1-.27-4.7,34.219,34.219,0,0,1,2.893-12.172c1.57-3.837,3.592-7.838,6.991-10.211" transform="translate(-260.244 -141.742)" fill="#a6a6e2"/><path d="M270.458,146.863a4.411,4.411,0,0,1,4.481,2.26,10.926,10.926,0,0,1,1.408,3.952c1.01,4.938,1.422,10.019,3,14.807a9.854,9.854,0,0,0,2.468,4.345c1.761,1.6,4.282,1.955,6.635,2.292q6.042.865,12.01,2.172a.507.507,0,0,1,.506.691l-.429,2.862a.643.643,0,0,1-.736.689,54.918,54.918,0,0,1-20.366-2.368,8.017,8.017,0,0,1-1.841-.764,6.888,6.888,0,0,1-1.55-1.4,29.511,29.511,0,0,1-4.881-9.111,80.384,80.384,0,0,1-3.623-12.179,11.321,11.321,0,0,1-.21-4.843,4.386,4.386,0,0,1,3.131-3.4" transform="translate(-261.615 -142.745)" fill="#9494d6"/></g><path d="M309.668,185.928l20.824,1.943,7.389-19.709" transform="translate(-270.066 -125.768)" fill="none" stroke="#031d2d" stroke-miterlimit="10" stroke-width="0.5"/></g><path d="M369.41,316.982a2.173,2.173,0,0,1,1.218-1.614.9.9,0,0,1,.476-.1c.474.057.673.647.643,1.122a3.478,3.478,0,0,1-1.021,2.148,6.523,6.523,0,0,1-2.01,1.34" transform="translate(-99.615 -97.945)" fill="none" stroke="#000" stroke-miterlimit="10" stroke-width="0.5"/><g transform="translate(284.587 203.393)"><g transform="translate(0.771 41.785)"><path d="M389.005,393.836c8.221-14.711,19.95-29.718,35.958-35.547,2.434-.885,4.936-1.585,7.435-2.284l21.37-5.973a75.028,75.028,0,0,1-17.543,22.115c-13.183,11.348-30.044,17.889-47.22,21.688" transform="translate(-389.005 -350.033)" fill="#032035"/><path d="M435.476,363.508q-21.018,13.278-40.8,28.273a95.462,95.462,0,0,1,10.08-12.623,82.512,82.512,0,0,1,13.981-11.308.091.091,0,0,0-.093-.155c-10.3,5.921-19.967,14.654-25.667,25.1a.375.375,0,0,0-.035.308q-.826.63-1.65,1.262a.417.417,0,0,0-.1.075c-.507.39-1.018.774-1.524,1.166-.434.336.192.943.622.611.45-.349.909-.686,1.36-1.034,12.766-3.7,25.448-10.262,34.721-19.717.083-.085-.042-.2-.132-.13-9.914,7.982-20.31,14.364-32.5,18.262q20.415-15.627,41.822-29.946C435.654,363.595,435.569,363.449,435.476,363.508Z" transform="translate(-389.109 -352.708)" fill="#abb8ec"/></g><path d="M388.049,383.983l0-.874c-.115-25.9,5.376-45.7,16.318-58.829,1.984-2.382,4.178-4.639,6.3-6.821l19.023-19.575.03.905a92.323,92.323,0,0,1-5.185,33.726c-6.145,17.5-18.2,34.617-35.838,50.874Zm40.922-84.257-17.756,18.268c-2.112,2.173-4.294,4.419-6.26,6.779-10.7,12.84-16.127,32.167-16.14,57.454,17.191-15.992,28.961-32.8,34.989-49.967A91.532,91.532,0,0,0,428.97,299.726Z" transform="translate(-388.043 -297.885)" fill="#abb8ec"/><g transform="translate(0.406 23.091)"><path d="M416.865,326.754q-13.815,26.375-25.371,53.818a117.8,117.8,0,0,1,3.015-19.209,100.938,100.938,0,0,1,7.76-20.142c.062-.121-.115-.227-.184-.107-7.109,12.31-11.948,27.2-11.74,41.532a.461.461,0,0,0,.143.345q-.48,1.15-.958,2.3a.468.468,0,0,0-.056.135c-.293.709-.594,1.415-.885,2.125-.25.61.741.876.988.272.259-.632.533-1.258.793-1.889,10.911-11.441,20.082-25.838,24.1-41.248a.109.109,0,0,0-.211-.058c-5.522,14.245-12.464,27.1-22.676,38.408q11.841-28.483,25.454-56.182C417.1,326.74,416.926,326.637,416.865,326.754Z" transform="translate(-388.549 -326.703)" fill="#abb8ec"/></g></g><g transform="translate(226.127 204.689)"><path d="M329.955,384.176s-3.3,11.258,10.218,11.1,32.566.125,32.566.125,7.888-5.439.938-14.4" transform="translate(-317.969 -315.697)" fill="#031d2d"/><path d="M363.922,323.407c-.925,2.051-1.873,4.225-1.64,6.463a6.939,6.939,0,0,0,1.1,3.044,1,1,0,0,1,.236.622.9.9,0,0,1-.256.463,11.32,11.32,0,0,1-12.771,2.857,27.7,27.7,0,0,0-.053-13.351" transform="translate(-322.13 -304.252)" fill="#efc8c5"/><path d="M338.372,351.61" transform="translate(-319.712 -309.856)" fill="none" stroke="#000" stroke-miterlimit="10" stroke-width="3"/><g transform="translate(7.341 27.655)"><path d="M347.265,334.747c4.074,2.822,9.093,2.348,12.976-.732a18.849,18.849,0,0,0,8.038,2.268,7.38,7.38,0,0,1,2.435.872c.744.49.522,1.3.606,2.183.952,10.165-.261,20.5,1.493,30.563.189,1.085.357,2.364-.423,3.141a4.963,4.963,0,0,1-2.5.861c-1.507.361-2.778,1.365-4.235,1.9a14.2,14.2,0,0,1-5.436.49c-7-.277-14.268-.62-20.486-3.854a4.479,4.479,0,0,1-1.5-1.107,4.934,4.934,0,0,1-.719-3.06q-.165-14.617.677-29.221a.826.826,0,0,1,.716-.907l8.212-3" transform="translate(-326.877 -334.015)" fill="#a6a6e2"/><path d="M377.858,337.839c.9.247,1.838,1.71,2.349,2.5,2.273,3.5,3.166,7.18,4.652,11.079l3.478,9.128a30.254,30.254,0,0,1,1.347,4.115,3.849,3.849,0,0,1-.207,2.885,3.935,3.935,0,0,1-1.068,1.029,20.486,20.486,0,0,1-10.583,3.837,2.219,2.219,0,0,1-1.869-.485c-.546-.627-.276-1.583-.03-2.377a18.3,18.3,0,0,0,.611-8.1c-.287-1.91-.874-3.76-1.3-5.645a33.054,33.054,0,0,1-.777-8.313c.118-3.493.91-7.191,3.392-9.651" transform="translate(-334.222 -334.775)" fill="#9494d6"/><path d="M336.251,339.181c-.9.247-1.839,1.711-2.349,2.5-2.274,3.5-3.167,7.18-4.652,11.079l-3.478,9.128A30.366,30.366,0,0,0,324.423,366a3.848,3.848,0,0,0,.208,2.885,3.932,3.932,0,0,0,1.067,1.029,20.487,20.487,0,0,0,10.583,3.837,2.216,2.216,0,0,0,1.869-.485c.546-.627.276-1.583.03-2.377a18.318,18.318,0,0,1-.612-8.1c.287-1.91.875-3.76,1.3-5.645a32.979,32.979,0,0,0,.777-8.312c-.118-3.492-.91-7.191-3.391-9.652" transform="translate(-324.246 -335.042)" fill="#9494d6"/></g><g transform="translate(20.669)"><path d="M348.432,304.62c-.158,1.149-.014,6.065,0,7.225a17.013,17.013,0,0,0,1.873,7.877,11.15,11.15,0,0,0,5.978,5.3,2.919,2.919,0,0,0,1.336.2,3.076,3.076,0,0,0,1.293-.6c2.816-1.963,4.367-3.623,5.5-6.863s-.357-9.732-.763-13.142" transform="translate(-342.366 -300.519)" fill="#f9d3cf"/><path d="M369.509,318.346a43.354,43.354,0,0,1-2.755-6.581c-.759-2.951-1.107-5.731-2.675-8.344-1.934-3.22-5.557-4.236-9.328-3.837a22.914,22.914,0,0,0-3.221.6,10.426,10.426,0,0,0-3.2,1.17,8.9,8.9,0,0,0-3.365,3.723,12.518,12.518,0,0,0-1.524,4.883,24.493,24.493,0,0,1-.415,4.828c-.535,2.07-1.89,3.906-2.113,6.033-.3,2.889,1.542,5.6,1.689,8.5.063,1.253-.193,2.51-.088,3.76a8.806,8.806,0,0,0,2.933,5.5,26.2,26.2,0,0,0,5.27,3.555c-1.007-2.159-.068-4.667.686-6.927a16.676,16.676,0,0,0,1.067-7.088c-.433-3.822-2.927-7.062-4.236-10.679a8.094,8.094,0,0,1-.58-3.716,10.442,10.442,0,0,1,.924-2.832l2.032-4.665a25,25,0,0,0,10.8,8.129l-.012.012a29.57,29.57,0,0,1-1.284,7.941c-.046.107-.1.211-.131.321s-.076.267-.109.415l0,.012h0a8.525,8.525,0,0,0,.075,3.867,4.434,4.434,0,0,0,1.31,1.989,5.1,5.1,0,0,0,2.446,1.01,10.671,10.671,0,0,0,2.492.087c2.377-.155,4.223-2.393,4.624-4.741A12.294,12.294,0,0,0,369.509,318.346Z" transform="translate(-340.879 -299.502)" fill="#032035"/><path d="M348.757,316.453a.919.919,0,0,0-.957-.891,1.273,1.273,0,0,0-1.081.87,2.42,2.42,0,0,0,.1,1.6,2.868,2.868,0,0,0,2.587,2.122" transform="translate(-342.021 -302.693)" fill="#f9d3cf"/></g><g transform="translate(16.308 45.513)"><rect width="37.179" height="24.821" rx="1.517" fill="#f2f0f0"/><circle cx="1.786" cy="1.786" r="1.786" transform="translate(16.804 10.625)" fill="#606060" opacity="0.29"/></g><g transform="translate(0 56.382)"><path d="M334.8,396.853c-3.083.843-6.357.414-9.539.724a20.617,20.617,0,0,0-9,3.091c-.567.36-1.176.853-1.183,1.524a2.009,2.009,0,0,0,.187.754,4.2,4.2,0,0,0,4.611,3.089c4.232.113,8.343-1.27,12.35-2.636l4.713-1.607" transform="translate(-315.085 -375.229)" fill="#a6a6e2"/><path d="M338.138,390.852c14.066-3.917,25.561-14.027,39.058-19.6a15.471,15.471,0,0,1,5.147-1.38,6.218,6.218,0,0,1,4.876,1.771,6.017,6.017,0,0,1,.994,5.837c-1.2,3.719-4.887,5.97-8.339,7.8-6.919,3.671-14.095,7-21.717,8.8-2.333.551-4.7.957-7.063,1.361l-10.182,1.745a1.19,1.19,0,0,1-1.528-.836c-1-1.772-1.837-3.559-1.246-5.5" transform="translate(-319.627 -369.866)" fill="#032035"/></g><g transform="translate(2.039 55.042)"><path d="M377.437,397.712c3.039.987,6.331.713,9.494,1.172a20.613,20.613,0,0,1,8.842,3.513c.55.386,1.135.907,1.11,1.579a2.009,2.009,0,0,1-.222.744,4.2,4.2,0,0,1-4.752,2.868c-4.232-.087-8.274-1.662-12.212-3.216l-4.632-1.828" transform="translate(-329.043 -374.059)" fill="#a6a6e2"/><path d="M367.261,391.265c-13.865-4.576-24.871-15.217-38.091-21.418a15.472,15.472,0,0,0-5.076-1.621,6.217,6.217,0,0,0-4.954,1.539,6.019,6.019,0,0,0-1.268,5.784c1.026,3.77,4.6,6.194,7.962,8.186,6.737,3.994,13.748,7.656,21.277,9.814,2.305.661,4.649,1.177,6.991,1.694l10.087,2.223a1.19,1.19,0,0,0,1.566-.763c1.078-1.723,2-3.469,1.5-5.438" transform="translate(-317.63 -368.193)" fill="#032035"/></g></g><g transform="translate(50.287 120.684)"><path d="M110.654,259.387c.043-.623-15.016-12.531-15.016-12.531" transform="translate(-95.638 -205.035)" fill="none" stroke="#9494d6" stroke-miterlimit="10" stroke-width="0.5"/><g transform="translate(24.595 89.267)"><path d="M152.872,312.46c-.4,7.343-1.947,8.359-1.211,15.675.18,1.784.984,5.406,1.253,10.375.3,5.6-1.22,11.659-1.518,13.328-1.768,9.914-3.711,13.1-1.372,22.9-4.567,2.624-9.315,5.308-14.559,5.8,2.312-1.837,4.7-3.766,5.986-6.425a18.869,18.869,0,0,0,1.445-6.551,194.2,194.2,0,0,0-4.181-61.495" transform="translate(-128.148 -306.069)" fill="#f9d3cf"/><path d="M147.723,388.9c-2.985,1.623-4.126,3.713-7.516,3.5-.526-.034-2.143-.542-2.567-.227-.731.542-3.305,1.771-3.955,2.22a8.172,8.172,0,0,1-3.9,1.367,8.43,8.43,0,0,0-2.252.6,2,2,0,0,0-1.2,1.847c.124,1.205,1.607,1.7,2.817,1.779,4.923.305,9.72-1.74,14.652-1.8a21.786,21.786,0,0,0,4-.15,1.544,1.544,0,0,0,.73-.3,1.616,1.616,0,0,0,.432-.889,10.85,10.85,0,0,0-1.252-7.946" transform="translate(-126.333 -322.53)" fill="#032035"/></g><g transform="translate(18.333 82.068)"><path d="M143,304.574c-3.57,6.559-7.47,11.913-11.04,18.472-1.217,2.237-3.009,5.261-3,7.809.006,2.042,1.951,6.486,2.644,8.406,3.317,9.2,3.691,17.153,5.086,26.837.423,2.933.974,5.988,2.787,8.332-5.387,1.3-8.706,7.527-14.2,8.246,2.373-2.713,4.511-5.771,5.335-9.28.978-4.168-.974-9.525-2.1-13.655-2.4-8.768-4.561-16.333-8.409-24.568a12.951,12.951,0,0,1-1.575-4.968,11.957,11.957,0,0,1,.383-2.9,163.139,163.139,0,0,1,9.807-30.22" transform="translate(-118.518 -297.084)" fill="#f9d3cf"/><path d="M138.192,389.979c-2.459,2.344-3.017,4.659-6.346,5.335-.516.1-2.21.036-2.537.45-.564.714-2.73,2.57-3.24,3.173a8.173,8.173,0,0,1-3.407,2.333,8.46,8.46,0,0,0-2.018,1.164,2,2,0,0,0-.675,2.095c.434,1.132,2,1.227,3.184.984,4.833-.986,8.932-4.209,13.679-5.551a21.811,21.811,0,0,0,3.826-1.187,1.544,1.544,0,0,0,.627-.479,1.613,1.613,0,0,0,.186-.97,10.851,10.851,0,0,0-3.277-7.346" transform="translate(-118.787 -315.544)" fill="#032035"/></g><g transform="translate(19.41 60.112)"><path d="M156.416,289.75q1.147,11.165,2.97,22.247c.046.279.071.616-.15.792a.789.789,0,0,1-.367.13,46.766,46.766,0,0,1-18.9-.556" transform="translate(-123.858 -273.671)" fill="#031d2d"/><path d="M148.1,269.684c1.534,4.325,4.289,8.32,4.628,12.9.341,4.605-1.822,8.977-3.8,13.149a66.389,66.389,0,0,0-5.205,13.986,1.334,1.334,0,0,1-.511.95,1.307,1.307,0,0,1-.9.025c-5.793-1.235-7.941-.957-13.734-2.191a27.333,27.333,0,0,1-8.717-3.893c5.123-9.477,8.453-19.921,11.086-30.934.077-.322.1-1.7.333-1.934.393-.39.716-.774,1.268-.716,1.514.159,3.429,1.584,4.927,1.317a31.047,31.047,0,0,1,4.813-.847c1.959-.037,4.079.619,5.783-.348" transform="translate(-119.862 -269.684)" fill="#032035"/></g><path d="M135.612,217.973a18.125,18.125,0,0,1-1.26,10.428,49.394,49.394,0,0,1,10.193-4.149,1.683,1.683,0,0,0,.623-.27c.508-.414.354-1.209.183-1.841a21.624,21.624,0,0,1-.267-10.173" transform="translate(-103.331 -198.102)" fill="#efc8c5"/><path d="M143.723,223.865a13.305,13.305,0,0,1-9.481,3.011c-1.672,5.721-6.59,10.7-6.4,16.645a24.814,24.814,0,0,0,1.705,6.9,67.289,67.289,0,0,1,2.758,11.74,1.555,1.555,0,0,0,.288.833,1.667,1.667,0,0,0,1.123.408c4.631.454,9.119.686,13.655-.3.72-.156,2.425-.156,2.828-.748.234-.343-.357-2.756-.375-3.166-.312-6.8,1.577-11.374.877-17.683a34.831,34.831,0,0,0-6.73-17.674" transform="translate(-102.036 -200.461)" fill="#a6a6e2"/><path d="M129.174,260.246l-10.55.651a25.532,25.532,0,0,1-4.322-.08,6.585,6.585,0,0,1-4.226-1.635c-1.6-1.746-1.163-4.777-2.905-6.382-.635-.227-.337,2.345-.15,3.976a.305.305,0,0,1-.413.32c-3.714-1.481-4.174-4.583-7.714-6.86-.619-.212.423,2.053,1.4,3.865,2.7,5.022,5.2,8.461,10.659,10.1a51.447,51.447,0,0,0,7.8,1.646,59.3,59.3,0,0,0,7.393.524c3-.031,6.183-.217,8.63-1.948" transform="translate(-96.248 -205.704)" fill="#f9d3cf"/><path d="M143.208,229.277c-1.7-.44-3.379.93-4.22,2.475a14.984,14.984,0,0,0-1.365,7.127c-.023,4.02.343,8.083-.409,12.031-.365,1.917-1.125,3.954-2.823,4.918a.873.873,0,0,0-.362.291.783.783,0,0,0-.04.5,20.3,20.3,0,0,0,5.06,10.683,1.192,1.192,0,0,0,.671.45,1.178,1.178,0,0,0,.742-.245,15.4,15.4,0,0,0,6.661-8.91,30.536,30.536,0,0,0,.817-6.1l.31-4.726a47.894,47.894,0,0,0-.084-10.526c-.507-3.245-1.994-6.55-4.958-7.966" transform="translate(-103.255 -201.526)" fill="#9494d6"/><g transform="translate(22.672)"><path d="M130.817,195.881s-7.314,2.229-6.864,9.759c.382,6.4,2.532,9.035,1.35,11.528,0,0,4.46-.909,4.206-5.332s1.661-6.577,1.661-6.577" transform="translate(-123.933 -194.906)" fill="#032035"/><path d="M133.99,196.348c-1.325.643-5.106,2.889-6.262,3.608-.839.521-1.384,2.728-1.253,4.2a23.069,23.069,0,0,0,2.385,9.43,8.027,8.027,0,0,0,3.032,2.809,4.522,4.522,0,0,0,2.942.032,12.585,12.585,0,0,0,7.829-5.852,10.808,10.808,0,0,0,.5-9.662" transform="translate(-124.434 -194.999)" fill="#f9d3cf"/><path d="M126.615,201s.509,4.549,3.59,6.463,3.964,4.043,4.015,5.047a2.949,2.949,0,0,0,1.143-2.685c-.018-2.022.415-3.962,1.938-3.39s1.229,3.185.9,4.691-2.644,6.093-.439,9.347,8.876,5.6,12.075,11.315a8.787,8.787,0,0,0,1.607-10.017c-2.294-5.026-6.493-5.626-5.766-11.337s1.148-10.454-4.428-14.124S128.1,195.5,126.615,201Z" transform="translate(-124.466 -194.664)" fill="#032035"/></g></g></g><path d="M102.349,122.61,214.912,282.888l15.868-10.14L116.894,110.993Z" fill="#abb8ec"/></g></svg>