<svg xmlns="http://www.w3.org/2000/svg" width="371.932" height="297.779" viewBox="0 0 371.932 297.779"><g transform="translate(-22.672 -55.147)" opacity="0.8"><g transform="translate(22.672 109.776)"><g transform="translate(0 39.63)"><g transform="translate(0 40.278)"><path d="M47.487,245.7c-.062.244-.158.641-.265,1.035q-5,18.38-10,36.76Q30.73,307.358,24.232,331.22c-.179.658-.3,1.332-.458,2a3.772,3.772,0,0,1-.255.772.441.441,0,0,1-.6.242.429.429,0,0,1-.241-.511c.08-.54.168-1.08.277-1.615q2.815-13.9,5.637-27.8,4.052-20.079,8.085-40.16,2.356-11.7,4.727-23.39c.078-.384.026-.939.472-1.063s.676.387.958.662q2.018,1.968,4.007,3.965A1.634,1.634,0,0,1,47.487,245.7Z" transform="translate(-22.672 -226.331)" fill="#fce0b4"/><path d="M98.511,279.867c-.063.256-.158.676-.265,1.091q-5,19.379-10,38.757-6.495,25.159-12.993,50.317c-.18.694-.3,1.4-.458,2.1a4.093,4.093,0,0,1-.256.814.433.433,0,0,1-.6.255.46.46,0,0,1-.24-.539c.079-.569.168-1.138.276-1.7q2.817-14.656,5.637-29.312,4.053-21.169,8.086-42.342,2.356-12.332,4.727-24.661c.079-.4.027-.99.473-1.12s.676.409.958.7q2.02,2.074,4.008,4.18A1.757,1.757,0,0,1,98.511,279.867Z" transform="translate(-32.806 -233.051)" fill="#fce0b4"/><path d="M403.653,229.955c.062.243.158.64.265,1.035q5,18.38,10,36.759,6.495,23.863,12.993,47.724c.179.658.3,1.333.457,2a3.83,3.83,0,0,0,.256.773.442.442,0,0,0,.6.242.43.43,0,0,0,.241-.512c-.08-.54-.168-1.079-.277-1.615q-2.816-13.9-5.637-27.8-4.052-20.079-8.086-40.16-2.355-11.7-4.727-23.391c-.078-.384-.026-.938-.473-1.062s-.676.387-.958.662q-2.018,1.967-4.007,3.965A1.635,1.635,0,0,0,403.653,229.955Z" transform="translate(-98.335 -223.204)" fill="#fce0b4"/><path d="M455.811,279.867c.062.256.158.676.265,1.091q5,19.379,10,38.757,6.495,25.159,12.993,50.317c.179.694.3,1.4.457,2.1a4.149,4.149,0,0,0,.256.814.433.433,0,0,0,.6.255.459.459,0,0,0,.24-.539c-.079-.569-.168-1.138-.276-1.7q-2.817-14.656-5.637-29.312-4.052-21.169-8.086-42.342-2.355-12.332-4.727-24.661c-.078-.4-.026-.99-.473-1.12s-.676.409-.958.7q-2.018,2.074-4.007,4.18A1.757,1.757,0,0,0,455.811,279.867Z" transform="translate(-108.694 -233.051)" fill="#fce0b4"/><path d="M187.756,223.214H333.243c.958,0,1.915.009,2.871,0a1.226,1.226,0,0,1,.916.341q13.757,12.683,27.531,25.345,10.753,9.891,21.51,19.776c.1.092.21.177.3.277.244.265.676.454.528.908-.126.385-.573.327-.873.444a2.585,2.585,0,0,1-.91.067q-89.813-.013-179.628-.032-57.723-.01-115.445.012a3.8,3.8,0,0,1-2.981-1.247c-1.918-2-4.154-3.645-6.253-5.442q-9.147-7.834-17.831-16.175c-7.834-7.483-15.724-14.907-23.59-22.356q-.3-.283-.592-.568a.934.934,0,0,1-.2-1.046c.127-.353.489-.313.8-.316s.615,0,.922,0H187.756Z" transform="translate(-25.821 -223.06)" fill="#fce0b4"/><path d="M37.6,223.025a2.605,2.605,0,0,1,1.748.918q3.867,3.67,7.731,7.343Q66.925,250.136,86.761,269a2.274,2.274,0,0,0,1.755.6q29.989.025,59.977.067,43.266.048,86.532.092,72.435.085,144.869.176c1.23,0,2.46,0,3.69.01.341,0,.681.037,1.022.059.5.034.683.276.7.795.041,1.164-.186,2.312-.155,3.473a.468.468,0,0,1-.49.53c-.374.023-.751.039-1.126.039q-42.5-.04-84.994-.083-66.8-.078-133.591-.166-38.6-.052-77.2-.1a5.482,5.482,0,0,1-4.03-1.626q-22.679-21.6-45.418-43.141a2.2,2.2,0,0,1-.8-1.857C37.579,226.275,37.57,224.679,37.6,223.025Z" transform="translate(-25.617 -223.025)" fill="#f2c386"/></g><g transform="translate(103.421 60.724)"><path d="M176.64,249.282c5.974-.231,11.948-.471,17.922-.687,1.57-.056,3.143-.018,4.715-.056a2.42,2.42,0,0,1,1.7.582c.156.132.33.246.475.39,3.872,3.856,8.088,7.357,11.773,11.406a8.808,8.808,0,0,1,.79.94,1.356,1.356,0,0,1-.579,2.2,3.383,3.383,0,0,1-1.8.3c-2.321-.1-4.643-.184-6.963-.307-3.618-.191-7.238-.248-10.856-.4-4.371-.182-8.746-.1-13.116-.3-3.351-.149-6.693.159-10.041.2a14,14,0,0,1-4.562-.494,7.182,7.182,0,0,1-2.414-1.312c-3.572-2.97-7.225-5.845-10.612-9.033a8.6,8.6,0,0,1-.944-.935,1.544,1.544,0,0,1,1.043-2.6,9.225,9.225,0,0,1,1.841-.046c3.174.147,6.35.246,9.528.261,4.032.019,8.064,0,12.1,0Z" transform="translate(-151.723 -248.538)" fill="#dbdbdb"/><path d="M159.875,252.142c-.4-.361-.8-.715-1.192-1.087-.234-.224-.627-.462-.271-.833s.621.014.866.22c.6.5,1.185,1.031,1.777,1.548a1.233,1.233,0,0,0,.784.442c1.869,0,3.738.164,5.732.062-.267-.52-.7-.747-1-1.085-.184-.208-.406-.426-.167-.708s.5-.125.716.057c.52.444,1.03.9,1.534,1.36a1.2,1.2,0,0,0,.9.4c1.837-.072,3.674-.125,5.589-.187-.116-.478-.479-.646-.714-.908-.159-.177-.352-.325-.51-.5a.377.377,0,0,1-.021-.55.4.4,0,0,1,.558-.038,4.928,4.928,0,0,1,.926.8,3.441,3.441,0,0,0,3.141,1.3c1.122-.064,2.25-.014,3.428-.014-.023-.4-.406-.551-.64-.8-.28-.3-.6-.56-.878-.859a.415.415,0,0,1-.051-.563.4.4,0,0,1,.63-.013c.591.518,1.179,1.039,1.745,1.583.444.426.829.912,1.562.773a.4.4,0,0,1,.5.382c.018.38-.284.438-.56.441-1.093.007-2.185-.008-3.279-.01-.983,0-1.964,0-3.093,0a15.5,15.5,0,0,0,2.287,2.262c.22.192.524.115.794.119,1.127.021,2.254.032,3.38.055a2.974,2.974,0,0,1,.706.083.347.347,0,0,1,.23.408.319.319,0,0,1-.248.293,6.849,6.849,0,0,1-.914.067c-.875.008-1.749,0-2.88,0,.659.648,1.166,1.124,1.644,1.628.261.274.781.555.377,1s-.728-.047-1.007-.3c-.631-.575-1.255-1.16-1.846-1.776a1.548,1.548,0,0,0-1.36-.536,43.575,43.575,0,0,1-4.575.143c-.184.313.067.41.2.529.727.673,1.478,1.32,2.194,2a1.9,1.9,0,0,0,1.382.525c2.766.042,5.531.123,8.3.191.273.006.547.015.818.034.225.015.406.123.416.363.013.292-.18.424-.453.441-.2.013-.41.015-.615.013-2.459-.028-4.918.057-7.376-.079a2.5,2.5,0,0,0-.371.049c.135.446.557.582.811.861.212.232.458.469.156.785-.242.252-.511.13-.735-.046-.535-.423-1.061-.859-1.587-1.3a1.518,1.518,0,0,0-1.006-.434c-1.671.012-3.342.006-5.029.006-.031.4.337.486.527.7s.418.354.6.559a.441.441,0,0,1,.038.57.414.414,0,0,1-.632.078,10.758,10.758,0,0,1-1.33-1.12,2.46,2.46,0,0,0-2.173-.853,20.3,20.3,0,0,1-2.048,0c-.334,0-.668-.089-.672-.466s.318-.491.655-.494c.6-.006,1.195,0,1.793,0l.063-.212a22.143,22.143,0,0,1-2-1.67,2.973,2.973,0,0,0-2.751-.971,2.589,2.589,0,0,1-.817,0c-.508-.093-1.406.344-1.412-.469,0-.726.871-.359,1.363-.433a6.486,6.486,0,0,1,.972-.01c.193-.336-.062-.424-.193-.546a10.183,10.183,0,0,1-.922-.812,3.645,3.645,0,0,0-3.448-1.3,13.966,13.966,0,0,1-1.946-.012c-.324-.01-.659-.1-.655-.491s.336-.467.666-.468c.85,0,1.7,0,2.55,0Zm7.186,4.706c-.06.228-.022.312.063.381.923.751,1.85,1.5,2.767,2.255a1.148,1.148,0,0,0,.754.252q2.4.037,4.793.074c.107,0,.182-.064.236-.261-.817-.745-1.68-1.505-2.51-2.3a1.647,1.647,0,0,0-1.293-.444c-1.291.036-2.584.032-3.876.043C167.671,256.85,167.345,256.848,167.061,256.848Zm3.308-3.253a16.743,16.743,0,0,0,2.037,1.81,1.662,1.662,0,0,0,1.205.444c1.535-.031,3.072-.039,4.608-.062.156,0,.351.027.4-.206-.567-.586-1.148-1.16-1.7-1.763a1.5,1.5,0,0,0-1.263-.518c-1.569.05-3.14.057-4.71.086C170.754,253.39,170.53,253.336,170.369,253.6Zm-7.386-.229-.1.222q1.267,1.081,2.534,2.162a1.108,1.108,0,0,0,.776.181c1.5,0,2.995,0,4.492-.008.182,0,.422.075.52-.249-.681-.628-1.379-1.269-2.074-1.914a.876.876,0,0,0-.643-.258C166.651,253.553,164.817,253.449,162.983,253.366Z" transform="translate(-152.688 -248.836)" fill="#7f7f7f"/><path d="M216.5,262.886l1.578,1.743a4.346,4.346,0,0,1,.4.463.382.382,0,0,1-.027.474.4.4,0,0,1-.55.08,1.614,1.614,0,0,1-.321-.251q-1.245-1.213-2.484-2.435c-.191-.189-.426-.387-.293-.7a.666.666,0,0,1,.692-.341c.818,0,1.636.038,2.453.061,1.466.042,2.932.082,4.4.129a4.3,4.3,0,0,1,.708.083.345.345,0,0,1,.288.368.4.4,0,0,1-.311.361,2.629,2.629,0,0,1-.913.046c-1.636-.041-3.273-.083-4.909-.119C216.979,262.844,216.75,262.872,216.5,262.886Z" transform="translate(-164.243 -251.196)" fill="#7f7f7f"/><path d="M211.025,265.739a.377.377,0,0,1-.6.305,8.21,8.21,0,0,1-1.564-1.6.342.342,0,0,1,.032-.466.35.35,0,0,1,.462-.086,7.984,7.984,0,0,1,1.634,1.656C211.028,265.6,211.016,265.68,211.025,265.739Z" transform="translate(-163.056 -251.577)" fill="#7f7f7f"/></g><g transform="translate(47.837)"><path d="M104.4,237.284c4.037.065,8.647-.248,13.248.183a18.26,18.26,0,0,1,2.835.4,3.964,3.964,0,0,1,1.579.7,1.415,1.415,0,0,1-.338,2.538,6.109,6.109,0,0,1-1.994.425c-.681.044-1.365.079-2.047.071a57.461,57.461,0,0,0-8.574.525,61.69,61.69,0,0,1-7.665.371c-3.687.054-7.365.286-11.044.491a8.035,8.035,0,0,1-1.227-.006c-.527-.051-.766-.294-.684-.808a8.929,8.929,0,0,0-.228-3.547c-.151-.619.079-.892.74-.924,3.066-.148,6.126-.463,9.2-.361C100.074,237.4,101.952,237.389,104.4,237.284Z" transform="translate(-83.525 -185.569)" fill="#f9f9f9"/><g transform="translate(15.369)"><path d="M111.548,178.988a9.021,9.021,0,0,1-.978,4.032A31.9,31.9,0,0,1,109,186.014a5.05,5.05,0,0,0,.17,5.864,9.646,9.646,0,0,1,.518.884.686.686,0,0,1-.231.985.74.74,0,0,1-1-.2,6.857,6.857,0,0,1-1.305-7.517c.6-1.3,1.324-2.544,1.943-3.838a7.268,7.268,0,0,0,.078-6.435q-.32-.7-.607-1.412a2.748,2.748,0,0,1-.2-.681.748.748,0,0,1,.469-.826.758.758,0,0,1,.921.232.908.908,0,0,1,.176.251C110.759,175.157,111.682,176.968,111.548,178.988Z" transform="translate(-102.537 -172.765)" fill="#aaa"/><path d="M101.548,188.826a9,9,0,0,1,.945-3.5c.391-.833.807-1.655,1.162-2.5a4.339,4.339,0,0,0,.145-3.2,1.727,1.727,0,0,1-.123-.494.793.793,0,0,1,.576-.862.756.756,0,0,1,.892.334,3.372,3.372,0,0,1,.482,1.337,5.907,5.907,0,0,1-.373,3.411c-.421,1-.921,1.977-1.362,2.974a6.991,6.991,0,0,0-.223,5.66,4.5,4.5,0,0,0,1.14,1.791c.49.431.541.8.263,1.144-.294.36-.747.353-1.277-.033a3.61,3.61,0,0,1-1-1.148A8.823,8.823,0,0,1,101.548,188.826Z" transform="translate(-101.541 -173.851)" fill="#aaa"/><path d="M112.465,188.848a6.5,6.5,0,0,1,1.378-3.788,10.04,10.04,0,0,0,1.531-2.879,5.278,5.278,0,0,0,.111-3.024,3.551,3.551,0,0,1-.123-.705.719.719,0,0,1,.539-.867.7.7,0,0,1,.87.53,7.4,7.4,0,0,1,.462,2.3,8.488,8.488,0,0,1-1.187,4.291c-.36.619-.764,1.213-1.151,1.817a4.567,4.567,0,0,0-.722,3.129,8.632,8.632,0,0,0,.938,3.431,1.031,1.031,0,0,1,.133.975.81.81,0,0,1-1.365.152,3.656,3.656,0,0,1-.728-1.342A12.156,12.156,0,0,1,112.465,188.848Z" transform="translate(-103.71 -173.717)" fill="#aaa"/></g><g transform="translate(0.974 49.709)"><path d="M99.093,237.471c-4.413-.026-9.027-.05-13.64-.083a4.481,4.481,0,0,1-1.017-.086,1.117,1.117,0,0,1,.075-2.188,2.456,2.456,0,0,1,.51-.045c3.041-.024,6.075-.277,9.119-.2,4.271.113,8.541-.059,12.812-.08a66.932,66.932,0,0,1,11.434.829A8.455,8.455,0,0,1,121,236.5c1.308.7,2.3,1.649,2.2,3.277a3.518,3.518,0,0,1-2.646,3.176,10.107,10.107,0,0,1-2.508.478c-3.985.4-7.983.35-11.98.373-6.047.034-12.093.123-18.139.188Q86.8,244,85.668,244a3.348,3.348,0,0,1-.712-.054,1.237,1.237,0,0,1-.073-2.4,3.638,3.638,0,0,1,.812-.076c4-.167,7.993-.122,11.991-.154,4.92-.04,9.84-.106,14.759-.116a56.174,56.174,0,0,0,6.132-.421,3.931,3.931,0,0,0,1.467-.422c.749-.411.778-.936.059-1.39a6.972,6.972,0,0,0-2.7-.9,70.131,70.131,0,0,0-11.345-.665C103.8,237.413,101.547,237.446,99.093,237.471Z" transform="translate(-83.579 -234.793)" fill="#ffa561"/></g><path d="M105.762,201.482c2.13-.1,4.828-.054,7.527-.019.205,0,.411,0,.615.015.692.054.791.151.686.805-.453,2.836-.508,5.713-.893,8.557-.293,2.165-.571,4.332-.85,6.5-.091.711-.144,1.426-.248,2.136-.151,1.039-.264,1.141-1.285,1.211-.442.03-.887.027-1.331.022q-4.2-.05-8.4-.305c-1.192-.071-2.39-.041-3.585-.058a6.651,6.651,0,0,1-.716-.021c-.743-.091-.971-.256-1.07-1-.135-1.013-.208-2.037-.264-3.059-.067-1.243-.05-1.22-1.335-1.417a10.564,10.564,0,0,1-4.738-1.81,3.952,3.952,0,0,1-1.651-2.384,3.7,3.7,0,0,1,2.349-4.64,18.483,18.483,0,0,1,3.547-.979c.167-.036.338-.051.5-.087.805-.172.8-.174.785-.971-.009-.547-.01-1.093.008-1.64.026-.807.148-.924.959-.974a4.742,4.742,0,0,1,.512,0C99.659,201.5,102.427,201.466,105.762,201.482ZM94.851,211.818c.849.058.917.036.9-.519-.029-1.125-.1-2.25-.155-3.375-.014-.256-.1-.478-.426-.448a7.726,7.726,0,0,0-3.7,1.049,1.241,1.241,0,0,0-.316,1.8,2.43,2.43,0,0,0,1.1.883A7.841,7.841,0,0,0,94.851,211.818Z" transform="translate(-83.501 -178.443)" fill="#c6c6c6"/><g transform="translate(0 40.951)"><path d="M103.171,231.185c-4.521-.123-8.075-.134-11.612-.476a33.858,33.858,0,0,1-4.265-.534,3.27,3.27,0,0,1-1.054-.39.981.981,0,0,1-.119-1.673,2.436,2.436,0,0,1,1.429-.525c1.529-.15,3.057-.354,4.59-.41,4.638-.171,9.278-.262,13.922-.227,3.718.029,7.439-.056,11.159.031.239.006.478-.01.716,0a.686.686,0,0,1,.74.8c-.03.853-.021,1.707-.074,2.558-.045.723-.254.942-.949,1-.781.067-1.568.093-2.352.1C110.931,231.51,106.564,231.356,103.171,231.185Z" transform="translate(-83.028 -224.475)" fill="#f9f9f9"/><path d="M85.318,228.515a10.788,10.788,0,0,0,4.255,1.109c2.415.226,4.84.316,7.265.36,6.8.121,13.593.2,20.391.185.683,0,1.366.04,2.048.061a2.362,2.362,0,0,1,.992.233,1.451,1.451,0,0,1,.805,1.473,1.421,1.421,0,0,1-.941,1.279,2.766,2.766,0,0,1-1.113.12q-10.245-.118-20.492-.227a88.435,88.435,0,0,1-9.922-.5,12.759,12.759,0,0,1-4.519-1.277,2.981,2.981,0,0,1-1.676-3.322,3.026,3.026,0,0,1,2.146-2.483,16.924,16.924,0,0,1,4.321-.829c3.609-.339,7.23-.4,10.847-.567a145.977,145.977,0,0,1,16.591-.052c.886.06,1.772.123,2.657.2a3.734,3.734,0,0,1,.9.172,1.339,1.339,0,0,1-.187,2.561,4.079,4.079,0,0,1-.918.046q-9.374-.313-18.745.155c-3.48.168-6.964.237-10.439.507A16.369,16.369,0,0,0,85.318,228.515Z" transform="translate(-82.364 -223.864)" fill="#b8d5ff"/></g></g></g><g transform="translate(93.639)"><path d="M217.648,215.714a42.658,42.658,0,0,0,.407,7.354,21.014,21.014,0,0,0,.829,3.271,10.473,10.473,0,0,0,3.58,5.128,15.32,15.32,0,0,1,1.164,1,2.354,2.354,0,0,1,.728,1.325,1.639,1.639,0,0,1-1.327,1.978,5.183,5.183,0,0,1-1.018.113c-3.751.008-7.494.532-11.256.151a3.248,3.248,0,0,1-2.621-1.522,11.371,11.371,0,0,1-2-6.45,64.09,64.09,0,0,1,1.576-12.474q.46-2.153.961-4.3c.217-.927.24-.951,1.136-.975q3.425-.091,6.85-.14c.827-.011.964.1.983.927C217.672,212.64,217.648,214.177,217.648,215.714Z" transform="translate(-152.746 -140.565)" fill="#969696"/><path d="M193.1,123.369c7.381-.087,14.761.009,22.139.19,2.938.072,5.878.022,8.816.1,4.1.1,8.2.235,12.3.061,1.943-.083,3.877-.348,5.828-.334a90.83,90.83,0,0,1,11.13.837,4.586,4.586,0,0,1,4.175,3.547,15.625,15.625,0,0,1,.434,2.1,58.078,58.078,0,0,1,.249,9.92c-.177,3.342-.142,6.7-.146,10.044-.009,6.288.067,12.576.017,18.863-.028,3.483-.266,6.963-.363,10.446-.093,3.347-.317,6.684-.576,10.022a4.487,4.487,0,0,1-3.059,4.086,13.119,13.119,0,0,1-3.895.824,89.513,89.513,0,0,1-10.752.283c-6.114-.224-12.229-.284-18.345-.224-5.364.051-10.73.087-16.091.257-9.291.294-18.584.358-27.877.365-6.083,0-12.165.071-18.247.05-3.246-.01-6.493.054-9.738-.1a12.467,12.467,0,0,1-5.5-1.454,6.071,6.071,0,0,1-2.737-2.941,16.461,16.461,0,0,1-1.3-6.378c-.177-7.211.163-14.416.205-21.625.03-5.022.333-10.042.2-15.065-.087-3.314-.2-6.63.018-9.938.135-2.08.188-4.162.3-6.242a9.059,9.059,0,0,1,.765-3.171,6.465,6.465,0,0,1,5.014-3.939,29.962,29.962,0,0,1,4.285-.36c8.744-.319,17.491-.314,26.239-.235C182.1,123.409,187.6,123.369,193.1,123.369Z" transform="translate(-139.517 -123.314)" fill="#969696"/><path d="M251.453,137.31c.023-.99.007-1.983-.053-2.97-.057-.941-.393-1.257-1.319-1.394a4.178,4.178,0,0,0-.511-.03c-3.177-.067-6.354-.126-9.531-.2-7.416-.175-14.827.179-22.242.185q-9.072.008-18.144,0v-.127c-1.777,0-3.554.045-5.329-.01-3.86-.118-7.721-.222-11.581-.185-10.56.1-21.117.037-31.668-.432a10.59,10.59,0,0,0-2.047.059c-.947.141-1.45.593-1.425,1.556.054,2.09-.293,4.158-.265,6.242a61.991,61.991,0,0,1-.169,7.678c-.29,2.624-.022,5.257-.143,7.887-.188,4.062-.163,8.131,0,12.195.224,5.667.445,11.333.474,17,.006,1.093.058,2.185.082,3.279a1.611,1.611,0,0,0,.936,1.475,5.71,5.71,0,0,0,1.945.607,18.44,18.44,0,0,0,2.451.18q6.868,0,13.736.006c5.877.016,11.745.4,17.627.335,7.209-.083,14.421.091,21.629-.133,6.866-.214,13.733-.236,20.6-.214,7.108.022,14.214.159,21.32.226,2.571.024,3.181-.617,3.223-3.218.017-1.024.012-2.049.037-3.073.093-3.756.337-7.507.2-11.27-.256-7.172-.511-14.347-.28-21.522C251.158,146.735,251.346,142.024,251.453,137.31Z" transform="translate(-140.982 -125.065)" fill="#f9f9f9"/><path d="M215.6,125.382a1.934,1.934,0,0,1,2.115,1.972,1.77,1.77,0,0,1-1.739,1.961,2.154,2.154,0,0,1-2.355-2.018A1.982,1.982,0,0,1,215.6,125.382Z" transform="translate(-154.234 -123.725)" fill="#7f7f7f"/><path d="M195.775,187.421q5.686,0,11.372,0a3.753,3.753,0,0,1,1.119.083,1.149,1.149,0,0,1,.9,1.1,1.128,1.128,0,0,1-.912,1.092,3.3,3.3,0,0,1-.81.078q-11.628.019-23.255.029a2.3,2.3,0,0,1-.909-.109,1.1,1.1,0,0,1-.738-1.113,1.054,1.054,0,0,1,.846-1.022,4.79,4.79,0,0,1,1.018-.075q5.686-.007,11.371,0Z" transform="translate(-148.061 -136.046)" fill="#a5a5a5"/><path d="M199.769,171.3q-5.843,0-11.687,0a3.121,3.121,0,0,1-1.216-.123,1.088,1.088,0,0,1-.745-1.106,1.072,1.072,0,0,1,.742-1,2.733,2.733,0,0,1,1.01-.133l23.888-.159a3.074,3.074,0,0,1,1.015.1,1.124,1.124,0,0,1,.808,1.067,1.138,1.138,0,0,1-.808,1.071,3.053,3.053,0,0,1-1.116.1q-5.946,0-11.893,0Z" transform="translate(-148.772 -132.344)" fill="#a5a5a5"/><path d="M186.913,165.48q-5.482,0-10.964,0a4.618,4.618,0,0,1-1.017-.067,1.114,1.114,0,0,1,.033-2.183,5.072,5.072,0,0,1,1.018-.08q11.015-.041,22.03-.073a2.709,2.709,0,0,1,1.013.1,1.119,1.119,0,0,1-.031,2.143,3.568,3.568,0,0,1-1.118.1H186.913Z" transform="translate(-146.377 -131.21)" fill="#ffa561"/><path d="M197.536,160.189q-5.28,0-10.559,0a4.471,4.471,0,0,1-.817-.046,1.107,1.107,0,0,1-.942-1.058,1.124,1.124,0,0,1,.865-1.131,3.3,3.3,0,0,1,.812-.079q10.559-.117,21.118-.224a3.9,3.9,0,0,1,.817.044,1.109,1.109,0,0,1,.929,1.172,1.089,1.089,0,0,1-.948,1.047,4.08,4.08,0,0,1-.715.042q-5.28.083-10.558.16Z" transform="translate(-148.593 -130.133)" fill="#73a7f9"/><path d="M185.775,141.033q-4.812,0-9.624,0a6.358,6.358,0,0,1-1.02-.046,1.106,1.106,0,0,1-.962-1.039,1.136,1.136,0,0,1,.844-1.144,3.073,3.073,0,0,1,.811-.074q10.084.016,20.17.04a2.513,2.513,0,0,1,1.006.142,1.066,1.066,0,0,1,.707,1.027,1.1,1.1,0,0,1-.784,1.078,3.4,3.4,0,0,1-1.216.114q-4.966,0-9.932,0Z" transform="translate(-146.398 -126.376)" fill="#73a7f9"/><path d="M186.155,184.646q-4.657,0-9.314,0a3.077,3.077,0,0,1-1.113-.11,1.114,1.114,0,0,1-.006-2.141,2.543,2.543,0,0,1,.908-.113l19.138-.033a2.3,2.3,0,0,1,.907.111,1.124,1.124,0,0,1,.757,1.1,1.078,1.078,0,0,1-.847,1.026,4.511,4.511,0,0,1-1.015.086q-4.707.008-9.415,0Z" transform="translate(-146.548 -135.019)" fill="#73a7f9"/><path d="M233.362,147.333q-4.656.082-9.312.162a3.238,3.238,0,0,1-1.116-.079,1.122,1.122,0,0,1-.008-2.176,3.543,3.543,0,0,1,1.013-.108q9.518-.123,19.036-.243a2.777,2.777,0,0,1,1.014.083,1.11,1.11,0,0,1,.79,1.176,1.044,1.044,0,0,1-.881.991,5.009,5.009,0,0,1-1.017.086q-4.759.008-9.517,0Z" transform="translate(-155.913 -127.598)" fill="#73a7f9"/><path d="M212.412,195.616h-8.29c-.307,0-.615.019-.921-.008-.822-.074-1.285-.51-1.28-1.18s.465-1.079,1.3-1.166c.169-.018.341-.011.511-.012q8.8-.067,17.6-.131a3.944,3.944,0,0,1,.814.057,1.112,1.112,0,0,1,.075,2.182,4.14,4.14,0,0,1-1.013.089q-4.4.01-8.8,0Z" transform="translate(-151.91 -137.178)" fill="#ffa561"/><path d="M203.972,147.879q-4.3,0-8.593,0a4.679,4.679,0,0,1-.815-.037,1.105,1.105,0,0,1-.941-1.055,1.17,1.17,0,0,1,.767-1.1,2.385,2.385,0,0,1,.906-.115q8.745-.138,17.491-.273a3.792,3.792,0,0,1,.611.025,1.135,1.135,0,0,1,1.042,1.076,1.149,1.149,0,0,1-.962,1.155,4.1,4.1,0,0,1-.813.063q-4.347.075-8.694.141Z" transform="translate(-150.262 -127.68)" fill="#ffa561"/><path d="M213.294,154.2l-8.3.169a3.117,3.117,0,0,1-1.216-.108,1.1,1.1,0,0,1-.761-.994,1.108,1.108,0,0,1,.737-1.113,2.633,2.633,0,0,1,1.007-.14q8.451-.13,16.9-.261a5.564,5.564,0,0,1,1.022.037,1.125,1.125,0,0,1,.966,1.148,1.137,1.137,0,0,1-.94,1.069,4.524,4.524,0,0,1-.815.055q-4.3.089-8.6.172Z" transform="translate(-152.128 -128.961)" fill="#a5a5a5"/><path d="M184.893,195.765q-4.146,0-8.291,0a5.474,5.474,0,0,1-.918-.04,1.146,1.146,0,0,1-.99-1.13,1.158,1.158,0,0,1,1.022-1.106,4.331,4.331,0,0,1,.715-.031q8.445,0,16.889,0a4.122,4.122,0,0,1,.815.048,1.122,1.122,0,0,1-.033,2.217,5.141,5.141,0,0,1-.918.042Q189.039,195.768,184.893,195.765Z" transform="translate(-146.503 -137.244)" fill="#a5a5a5"/><path d="M215.593,138.793q3.583,0,7.167,0a3.212,3.212,0,0,1,1.115.1,1.123,1.123,0,0,1,.035,2.144,2.733,2.733,0,0,1-1.011.121q-7.32.024-14.641.045a3.625,3.625,0,0,1-.814-.052,1.113,1.113,0,0,1-.9-1.191,1.061,1.061,0,0,1,.968-1.021,7.6,7.6,0,0,1,1.124-.049q3.481-.006,6.962,0Z" transform="translate(-152.827 -126.388)" fill="#a5a5a5"/><path d="M183.751,178.4q-3.432,0-6.864,0a5.4,5.4,0,0,1-1.019-.06,1.085,1.085,0,0,1-.884-1,1.153,1.153,0,0,1,.721-1.131,2.386,2.386,0,0,1,1.008-.121q7.018-.013,14.036-.02a4,4,0,0,1,.815.047,1.12,1.12,0,0,1-.03,2.215,5.4,5.4,0,0,1-.919.045q-3.432,0-6.864,0Z" transform="translate(-146.56 -133.791)" fill="#a5a5a5"/><path d="M230.147,171.284q-2.453,0-4.907,0a5.446,5.446,0,0,1-.916-.037,1.163,1.163,0,0,1-1.045-1.085,1.181,1.181,0,0,1,1.056-1.184,3.374,3.374,0,0,1,.611-.042q5.265-.073,10.53-.139a3.073,3.073,0,0,1,.809.085,1.113,1.113,0,0,1,.847,1.031,1.148,1.148,0,0,1-.763,1.1,2.563,2.563,0,0,1-1.008.119q-2.606,0-5.214,0Z" transform="translate(-156.152 -132.347)" fill="#ffa561"/><path d="M180.992,148.014q-2.508,0-5.014,0a3.117,3.117,0,0,1-1.112-.12,1.083,1.083,0,0,1-.758-.994,1.1,1.1,0,0,1,.739-1.109,2.321,2.321,0,0,1,.906-.126q5.218-.026,10.437-.052a3.643,3.643,0,0,1,.713.04,1.122,1.122,0,0,1,.95,1.154,1.1,1.1,0,0,1-.93,1.064,4.92,4.92,0,0,1-.917.05c-1.672,0-3.343,0-5.014,0Z" transform="translate(-146.386 -127.743)" fill="#a5a5a5"/><path d="M190.116,154.543h-4.393c-.238,0-.477.01-.715,0-.816-.047-1.3-.48-1.3-1.14a1.2,1.2,0,0,1,1.308-1.149c3.439-.073,6.878-.119,10.317-.167a1.859,1.859,0,0,1,.6.1,1.08,1.08,0,0,1,.793,1.066,1.054,1.054,0,0,1-.8,1.055,4.526,4.526,0,0,1-1.111.127c-1.567.013-3.133.006-4.7.006Z" transform="translate(-148.294 -129.028)" fill="#a5a5a5"/><path d="M223.135,157.354c1.4,0,2.794,0,4.192,0,1.051,0,1.606.411,1.588,1.159-.017.695-.559,1.123-1.531,1.151-2.794.082-5.587.148-8.382.216a3.728,3.728,0,0,1-.814-.042,1.127,1.127,0,0,1-.056-2.2,2.41,2.41,0,0,1,.607-.064c1.465,0,2.93,0,4.395,0Z" transform="translate(-154.959 -130.075)" fill="#a5a5a5"/><path d="M223.4,189.781h-3.784a2.027,2.027,0,0,1-.9-.129,1.1,1.1,0,0,1-.677-1.149,1.035,1.035,0,0,1,.8-.95,3.983,3.983,0,0,1,.91-.106c2.489-.052,4.977-.1,7.467-.134,1.065-.014,1.595.4,1.582,1.156-.014.741-.543,1.135-1.616,1.149-1.261.016-2.523,0-3.783,0Z" transform="translate(-155.109 -136.025)" fill="#73a7f9"/><path d="M237.943,187.3c.988,0,1.976,0,2.964,0a3.81,3.81,0,0,1,.813.059,1.111,1.111,0,0,1,.927,1.172,1.079,1.079,0,0,1-1.046,1.055,5.9,5.9,0,0,1-.817.014q-2.913-.038-5.825-.082a2.965,2.965,0,0,1-1.009-.126,1.123,1.123,0,0,1,.019-2.142,2.617,2.617,0,0,1,.909-.1c1.022,0,2.044,0,3.065,0Z" transform="translate(-158.117 -135.994)" fill="#ffa561"/><path d="M167.573,139.365a1.686,1.686,0,1,1-1.624-1.733A1.675,1.675,0,0,1,167.573,139.365Z" transform="translate(-144.419 -126.158)" fill="#7f7f7f"/><path d="M167.751,152.434a1.7,1.7,0,1,1-1.721-1.659A1.711,1.711,0,0,1,167.751,152.434Z" transform="translate(-144.449 -128.768)" fill="#7f7f7f"/><path d="M165.9,159.8a1.691,1.691,0,1,1,1.7-1.669A1.691,1.691,0,0,1,165.9,159.8Z" transform="translate(-144.427 -129.888)" fill="#7f7f7f"/><path d="M166.115,168.45a1.7,1.7,0,1,1-1.71,1.665A1.694,1.694,0,0,1,166.115,168.45Z" transform="translate(-144.459 -132.278)" fill="#7f7f7f"/><path d="M166.055,162.61a1.7,1.7,0,1,1-1.706,1.674A1.708,1.708,0,0,1,166.055,162.61Z" transform="translate(-144.448 -131.119)" fill="#7f7f7f"/><path d="M167.765,194.762a1.676,1.676,0,1,1-1.611-1.753A1.689,1.689,0,0,1,167.765,194.762Z" transform="translate(-144.461 -137.156)" fill="#7f7f7f"/><path d="M165.8,189.89a1.676,1.676,0,1,1,1.726-1.624A1.653,1.653,0,0,1,165.8,189.89Z" transform="translate(-144.415 -135.871)" fill="#7f7f7f"/><path d="M166,174.55a1.678,1.678,0,1,1-1.67,1.685A1.667,1.667,0,0,1,166,174.55Z" transform="translate(-144.444 -133.49)" fill="#7f7f7f"/><path d="M164.237,182.48a1.677,1.677,0,1,1,1.576,1.77A1.666,1.666,0,0,1,164.237,182.48Z" transform="translate(-144.426 -134.751)" fill="#7f7f7f"/><path d="M167.366,146.465a1.478,1.478,0,1,1-1.5-1.484A1.5,1.5,0,0,1,167.366,146.465Z" transform="translate(-144.461 -127.617)" fill="#7f7f7f"/></g></g><g transform="translate(51.624 55.147)"><path d="M225.325,103.945c.466-.95-.186-1.35-1-1.765-.521-.265-.9-.345-1.352.073a1.681,1.681,0,0,1-.633.333.733.733,0,0,1-.91-.32c-.406-.662-.821-1.319-1.185-2-.41-.771-.253-1.163.539-1.529a1.661,1.661,0,0,1,.3-.123c.429-.1.52-.349.434-.773-.2-1-.184-1.007-1.184-1.227-.846-.186-1.1-.519-.979-1.354a9.021,9.021,0,0,1,.5-2.107c.293-.735.594-.888,1.374-.721a1.97,1.97,0,0,1,.386.107c.354.159.532-.038.721-.3a.483.483,0,0,0-.046-.707,4.02,4.02,0,0,1-.3-.379c-.5-.684-.452-1.063.209-1.554.6-.446,1.2-.9,1.81-1.335.868-.626,1.273-.52,1.765.42.119.229.119.612.584.49.619-.164.781-.288.831-.782.138-1.351.419-1.611,1.765-1.567a6.977,6.977,0,0,1,1.192.159.966.966,0,0,1,.87,1.144c-.006.133-.046.264-.051.4-.015.362-.292.793.02,1.071a3.952,3.952,0,0,0,1.418.732c.212.071.341-.095.479-.224a8.113,8.113,0,0,1,.716-.644,1.108,1.108,0,0,1,1.737.252c.373.523.695,1.081,1.027,1.63a1.089,1.089,0,0,1-.155,1.4,1.857,1.857,0,0,1-.329.351c-.661.433-.6,1.058-.5,1.713a.381.381,0,0,0,.41.382c.32.026.639.071.956.12.745.118,1.068.445,1.018,1.18a19.291,19.291,0,0,1-.33,2.384c-.11.555-.429.749-1.006.684a5.858,5.858,0,0,1-1.1-.243.43.43,0,0,0-.583.236c-.54.889-.551.882.112,1.7.1.125.208.246.3.377a.865.865,0,0,1-.167,1.387,14.824,14.824,0,0,1-1.848,1.281.931.931,0,0,1-1.356-.208,5.333,5.333,0,0,1-.361-.431c-.633-.8-.856-.862-1.826-.583a.414.414,0,0,0-.321.4c-.057.4-.107.8-.193,1.188-.123.562-.388.813-.944.794a6.171,6.171,0,0,1-2.2-.392C225.457,104.862,225.295,104.568,225.325,103.945Zm3.355-11.68c-2.016,0-3,.729-3.53,2.585a6.426,6.426,0,0,0-.177.783,3.533,3.533,0,0,0,2.285,3.677,3.765,3.765,0,0,0,4.063-1.338,6.1,6.1,0,0,0,.834-2.742,2.353,2.353,0,0,0-.932-2.115A3.652,3.652,0,0,0,228.68,92.264Z" transform="translate(-90.679 -61.437)" fill="#a9d7ed"/><g transform="translate(3.921 60.961)"><path d="M66.477,145.192a7.432,7.432,0,0,1,1.993,4.99c.093,1.122.238,2.239.372,3.357a4.459,4.459,0,0,0,.177.8c.341,1.087.7,1.358,1.838,1.42a5.5,5.5,0,0,1,.816.051.794.794,0,0,1,.7.87.748.748,0,0,1-.728.73c-1.995.147-3.311-.24-4.078-2.123a10.138,10.138,0,0,1-.558-2.7c-.1-.847-.157-1.7-.239-2.548a7.918,7.918,0,0,0-.568-2.379,1.833,1.833,0,0,0-1.378-1.241,2.139,2.139,0,0,1-.486-.156.931.931,0,0,1-.645-.841.867.867,0,0,1,.51-.82.711.711,0,0,1,.087-.054c1.76-.655,2.254-2,2.12-3.747-.091-1.19-.083-2.388-.084-3.583a7.068,7.068,0,0,1,.64-3.183,2.772,2.772,0,0,1,2.518-1.644c.584-.029.96.228.986.659a.716.716,0,0,1-.739.808c-1.131.079-1.466.866-1.644,1.787a8.955,8.955,0,0,0-.114,2.04c.042,1.126.087,2.252.106,3.378C68.106,142.638,67.956,144.155,66.477,145.192Z" transform="translate(-63.691 -131.449)" fill="#a9d7ed"/><path d="M88.014,137.311c.013,1.366.073,2.727.188,4.09.074.88.278,1.615,1.3,1.811a.857.857,0,0,1,.74.753.881.881,0,0,1-.595.978c-.781.265-.881.881-.931,1.543a21.949,21.949,0,0,0,.212,3.878,19.824,19.824,0,0,1,.127,3.166,2.943,2.943,0,0,1-2.572,2.985,8.71,8.71,0,0,1-1.11.184.879.879,0,0,1-1.024-.64c-.1-.43.156-.8.689-.974a6.841,6.841,0,0,1,.8-.169c1.242-.236,1.551-.574,1.552-1.857,0-.782-.069-1.566-.128-2.348-.091-1.19-.266-2.374-.258-3.571a5.56,5.56,0,0,1,.449-2.495.569.569,0,0,0-.089-.732,3.972,3.972,0,0,1-.833-2.367,32.368,32.368,0,0,1-.11-4.907,14.323,14.323,0,0,0-.061-2.453c-.139-1.08-.492-1.382-1.595-1.43-.642-.029-.95-.232-.987-.652-.04-.45.308-.762.953-.854a2.6,2.6,0,0,1,2.807,1.431,3.985,3.985,0,0,1,.47,1.766C88.031,135.4,88.014,136.355,88.014,137.311Z" transform="translate(-67.68 -131.216)" fill="#a9d7ed"/></g><g transform="translate(173.577 27.021)"><path d="M287.875,105.875a.763.763,0,0,1-.823-.83,1.859,1.859,0,0,1,.3-.862c2.526-4.727,4.841-9.56,7.273-14.335a3.961,3.961,0,0,1,.414-.7.639.639,0,0,1,.823-.21.7.7,0,0,1,.418.841,4.12,4.12,0,0,1-.3.758c-2.246,4.828-4.564,9.619-7.072,14.318C288.47,105.673,288.295,105.852,287.875,105.875Z" transform="translate(-277.708 -88.864)" fill="#a9d7ed"/><path d="M277.3,98.6a3.131,3.131,0,0,0,1.151.878,31.382,31.382,0,0,0,3.864,1.864,3.938,3.938,0,0,1,.891.487.71.71,0,0,1,.228.914.785.785,0,0,1-.83.473,1.638,1.638,0,0,1-.491-.132A32.64,32.64,0,0,1,276.9,100.5a5.9,5.9,0,0,1-1.038-.823,1.264,1.264,0,0,1-.07-1.911,6.223,6.223,0,0,1,.65-.65q2.7-2.429,5.4-4.85a4.515,4.515,0,0,1,.651-.494.645.645,0,0,1,.842.1.675.675,0,0,1,.092.929,4.16,4.16,0,0,1-.632.664q-2.353,2.2-4.711,4.4C277.844,98.091,277.6,98.324,277.3,98.6Z" transform="translate(-275.392 -89.419)" fill="#a9d7ed"/><path d="M302.708,91.9a.86.86,0,0,1,.624.312c1.584,1.613,3.424,2.932,5.106,4.433a6.974,6.974,0,0,1,.793.8,1.12,1.12,0,0,1-.117,1.793c-.752.7-1.539,1.354-2.338,2-1.119.9-2.258,1.772-3.4,2.645-.712.547-1.17.576-1.52.129s-.2-.894.5-1.449c1.44-1.152,2.894-2.289,4.339-3.436.24-.191.462-.406.7-.6s.213-.394-.01-.591c-.59-.519-1.174-1.044-1.767-1.56-1.031-.9-2.081-1.773-3.032-2.758a2.177,2.177,0,0,1-.557-.727A.7.7,0,0,1,302.708,91.9Z" transform="translate(-280.614 -89.466)" fill="#a9d7ed"/></g><g transform="translate(31.832 41.551)"><path d="M139.574,112.15a3.8,3.8,0,0,1-.873,2.448,2.26,2.26,0,0,1-3.429.243,4.628,4.628,0,0,1-.319-5.988,2.269,2.269,0,0,1,3.44-.1A4.4,4.4,0,0,1,139.574,112.15Zm-1.69-.247a2.62,2.62,0,0,0-.588-1.85.672.672,0,0,0-1.13-.013,3.015,3.015,0,0,0,.2,3.509.66.66,0,0,0,1.114-.14A2.331,2.331,0,0,0,137.884,111.9Z" transform="translate(-105.567 -107.198)" fill="#a9d7ed"/><path d="M121.118,112.417a3.635,3.635,0,0,1-.591,1.854,2.747,2.747,0,0,1-2.662,1.38,2.409,2.409,0,0,1-2.042-1.9,4.964,4.964,0,0,1,.592-4.4,2.386,2.386,0,0,1,3.974.066A4.88,4.88,0,0,1,121.118,112.417Zm-3.952-.236a2.33,2.33,0,0,0,.323,1.362.748.748,0,0,0,1.2.255,1.5,1.5,0,0,0,.591-.8,3.17,3.17,0,0,0-.092-2.28c-.143-.357-.365-.675-.8-.667a.99.99,0,0,0-.98.736A3.8,3.8,0,0,0,117.166,112.181Z" transform="translate(-101.902 -107.259)" fill="#a9d7ed"/><path d="M98.52,113.855a11.256,11.256,0,0,1,.531-3,1.685,1.685,0,0,1,1.506-1.19,2.446,2.446,0,0,1,2.84,2.14,5.745,5.745,0,0,1-.669,3.551,2.2,2.2,0,0,1-2.316,1.322,2.5,2.5,0,0,1-1.825-2.108C98.543,114.3,98.536,114.029,98.52,113.855Zm3.223-1.507a2.126,2.126,0,0,0-.018-.3.745.745,0,0,0-.749-.7c-.445-.04-.594.266-.662.625-.076.4-.138.807-.188,1.213a2.6,2.6,0,0,0,.054,1.217c.092.259.191.543.5.6.337.057.464-.24.594-.47A4.455,4.455,0,0,0,101.743,112.348Z" transform="translate(-98.52 -107.52)" fill="#a9d7ed"/><path d="M147.031,110c-.28.335-.558.672-.841,1a5.46,5.46,0,0,1-.477.531.684.684,0,0,1-.932.081.673.673,0,0,1-.171-.993,23.94,23.94,0,0,1,2.694-3.33c.547-.553,1.238-.306,1.513.446a2.873,2.873,0,0,1,.122,1.009q0,2.349-.009,4.7a1.836,1.836,0,0,1-.144.9.764.764,0,0,1-.837.445.7.7,0,0,1-.638-.575,5.337,5.337,0,0,1-.061-.914c-.007-1.079,0-2.157,0-3.236Z" transform="translate(-107.644 -106.995)" fill="#a9d7ed"/><path d="M109.176,111.73c-.4.361-.8.723-1.2,1.082a6.636,6.636,0,0,1-.542.467.7.7,0,0,1-1.016-.057.748.748,0,0,1,.034-1.028,1.447,1.447,0,0,1,.134-.155q1.29-1.245,2.581-2.489a1.1,1.1,0,0,1,1.209-.334,1.017,1.017,0,0,1,.623.981,36.109,36.109,0,0,1-.136,5.116.754.754,0,0,1-.809.757.8.8,0,0,1-.8-.784,6.417,6.417,0,0,1,0-1.124c.038-.779.092-1.556.139-2.334Z" transform="translate(-100.051 -107.422)" fill="#a9d7ed"/><path d="M127.585,111.673c-.5.256-.683.685-.992.989-.381.373-.774.431-1.083.155a.709.709,0,0,1-.111-1.012,21.119,21.119,0,0,1,2.383-2.922.891.891,0,0,1,1.529.567,3.988,3.988,0,0,1,.039.813c-.026,1.5-.059,2.995-.091,4.492a2.428,2.428,0,0,1-.014.305c-.079.569-.364.891-.795.906s-.775-.285-.841-.853a12.622,12.622,0,0,1-.024-1.426C127.584,113.048,127.585,112.408,127.585,111.673Z" transform="translate(-103.826 -107.315)" fill="#a9d7ed"/></g><g transform="translate(88.852 20.161)"><path d="M186.147,85.052c-.11.1-.245.2-.363.32-.359.365-.7.753-1.068,1.1-.454.428-.931.466-1.271.143s-.327-.8.1-1.271c.457-.506.954-.977,1.449-1.447a.454.454,0,0,0,.081-.7c-.315-.4-.608-.822-.92-1.228-.124-.162-.291-.293-.4-.462a.713.713,0,0,1,.078-1.015.7.7,0,0,1,.941-.007,6.829,6.829,0,0,1,1.307,1.43c.408.533.422.531.925.076.329-.3.632-.623.962-.919.486-.434.835-.482,1.168-.185s.32.746-.127,1.253c-.384.434-.793.847-1.217,1.242a.5.5,0,0,0-.059.788c.363.452.708.919,1.056,1.382a4.917,4.917,0,0,1,.413.583.791.791,0,0,1-1.232.961,10.566,10.566,0,0,1-1.334-1.681C186.517,85.254,186.428,85.053,186.147,85.052Z" transform="translate(-172.358 -80.304)" fill="#a9d7ed"/><path d="M173.717,87.145c.47.06,1.323.065,2.177.072a2.8,2.8,0,0,1,.71.073.751.751,0,0,1,.594.742.725.725,0,0,1-.575.752,2.264,2.264,0,0,1-.706.057q-2.4-.123-4.805-.269a3.271,3.271,0,0,1-.805-.131.767.767,0,0,1-.608-.922c.127-.44.467-.545.88-.523C171.5,87.042,172.416,87.083,173.717,87.145Z" transform="translate(-169.67 -81.633)" fill="#a9d7ed"/></g><path d="M74.087,55.586a1.415,1.415,0,0,1,1.475,1.373,1.691,1.691,0,0,1-1.637,1.624A1.5,1.5,0,0,1,72.528,57,1.473,1.473,0,0,1,74.087,55.586Z" transform="translate(-61.526 -55.234)" fill="#a9d7ed"/><path d="M60.2,57.217a1.545,1.545,0,0,1,1.588,1.414,1.449,1.449,0,0,1-1.411,1.558A1.476,1.476,0,0,1,58.8,58.781,1.432,1.432,0,0,1,60.2,57.217Z" transform="translate(-58.799 -55.558)" fill="#a9d7ed"/><path d="M86.536,57.921a1.256,1.256,0,0,1-1.3-1.284,1.425,1.425,0,0,1,1.475-1.491,1.212,1.212,0,0,1,1.257,1.209A1.505,1.505,0,0,1,86.536,57.921Z" transform="translate(-64.048 -55.147)" fill="#a9d7ed"/><g transform="translate(243.89 12.694)"><path d="M389.645,87.283a10.24,10.24,0,0,1-3.476,7.132,1.164,1.164,0,0,0-.407.983c.017.819,0,1.64.016,2.459a1.033,1.033,0,0,1-.649,1.152c-.313.113-.368.341-.41.632a8.8,8.8,0,0,1-.287,1.4,3.7,3.7,0,0,1-5,2.153,2.551,2.551,0,0,1-1.257-1.3,6.376,6.376,0,0,1-.409-1.37c-.046-.234-.026-.562-.172-.683-1.069-.884-.646-2.129-.833-3.223a1.705,1.705,0,0,1-.017-.307,2.132,2.132,0,0,0-1.1-2.009c-4.937-3.116-5.587-9.892-1.5-14.362a8.671,8.671,0,0,1,9.123-2.438C387.443,78.622,389.673,81.826,389.645,87.283Zm-6.8,6.523a29.348,29.348,0,0,0,.227,3.271c.073.47.377.619.779.434.239-.11.237-.306.239-.51,0-.717.013-1.435,0-2.152a1.729,1.729,0,0,1,.732-1.5,5.846,5.846,0,0,0,1.229-1.227,9.5,9.5,0,0,0,1.887-6.649,6.929,6.929,0,0,0-8.5-6.5c-3.339.6-5.483,2.665-6.146,6.522a7.041,7.041,0,0,0,2.745,7.082,8.863,8.863,0,0,0,.991.725,2.272,2.272,0,0,1,1.2,2.01c.03.751.107,1.5.148,2.25.016.3.132.414.445.388a.574.574,0,0,0,.607-.648,32.459,32.459,0,0,0-.017-5.116c-.092-.684,0-1.006-1.019-1.064a3.014,3.014,0,0,1-2.1-.945,1.787,1.787,0,0,1-.2-2.264,1.71,1.71,0,0,1,2.108-.528,2.573,2.573,0,0,1,1.37,1.318A8.541,8.541,0,0,1,380,89.741c.074.208.158.354.4.39a1.3,1.3,0,0,0,1.656-1.145,4.6,4.6,0,0,1,.524-1.437,2.529,2.529,0,0,1,1.781-1.261,1.584,1.584,0,0,1,1.933,1.675,2.077,2.077,0,0,1-.758,1.514,5.707,5.707,0,0,1-1.872,1.03c-.789.284-.8.288-.817,1.148C382.833,92.371,382.845,93.088,382.845,93.806Zm-2.322.539-.118,0c0,.951.016,1.9-.008,2.854-.01.4.122.567.523.516a2.573,2.573,0,0,1,.509-.023c.506.035.654-.2.6-.68a42.476,42.476,0,0,1-.211-5.295c0-.353.022-.68-.518-.644-.779.05-.924.132-.9.725C380.436,92.648,380.48,93.5,380.522,94.345Zm.355,7.545a2.111,2.111,0,0,0,2.146-2.235c0-.346-.2-.385-.458-.376-.881.032-1.763.044-2.641.114-.781.062-.812.133-.644.875a5.28,5.28,0,0,0,.192.684A1.3,1.3,0,0,0,380.878,101.89Zm2.2-12.379a3.028,3.028,0,0,0,1.98-1.056.712.712,0,0,0,.06-.941c-.262-.333-.615-.246-.927-.084A2.254,2.254,0,0,0,383.08,89.511ZM379,90.073a2.658,2.658,0,0,0-1-1.627.731.731,0,0,0-1.017.054.739.739,0,0,0,.191,1.076A2.4,2.4,0,0,0,379,90.073Z" transform="translate(-364.784 -72.205)" fill="#a9d7ed"/><path d="M363.957,90.442c-.064,0-.165,0-.266,0-.305-.006-.534-.12-.559-.456a.46.46,0,0,1,.4-.514q1.3-.191,2.615-.308a.456.456,0,0,1,.555.454.511.511,0,0,1-.488.548C365.473,90.273,364.734,90.349,363.957,90.442Z" transform="translate(-363.13 -74.596)" fill="#a9d7ed"/><path d="M367.206,98.266a.4.4,0,0,1-.345-.2.426.426,0,0,1,.059-.563,18.142,18.142,0,0,1,2.307-1.67.405.405,0,0,1,.541.155.366.366,0,0,1-.027.474,12.112,12.112,0,0,1-2.349,1.777A.479.479,0,0,1,367.206,98.266Z" transform="translate(-363.855 -75.911)" fill="#a9d7ed"/><path d="M383.387,72.547c0,.341.019.684-.006,1.023a.465.465,0,0,1-.441.483c-.331,0-.478-.245-.484-.547-.012-.682-.012-1.366.007-2.048a.448.448,0,0,1,.446-.471.436.436,0,0,1,.476.434c.03.373.008.749.008,1.124Z" transform="translate(-366.966 -70.987)" fill="#a9d7ed"/><path d="M392.2,75.736a.426.426,0,0,1-.45-.617,9.71,9.71,0,0,1,1.6-1.971.4.4,0,0,1,.558.026.353.353,0,0,1,.1.458,11.863,11.863,0,0,1-1.565,2A.628.628,0,0,1,392.2,75.736Z" transform="translate(-368.802 -71.396)" fill="#a9d7ed"/><path d="M374.492,74.12c0,.213.01.349,0,.482a.382.382,0,0,1-.3.362.4.4,0,0,1-.492-.258,9.509,9.509,0,0,1-.376-2.493.4.4,0,0,1,.381-.4.435.435,0,0,1,.51.383C374.325,72.857,374.407,73.529,374.492,74.12Z" transform="translate(-365.153 -71.15)" fill="#a9d7ed"/><path d="M396.907,96.866a1.038,1.038,0,0,1,.285.081,9.884,9.884,0,0,1,1.776,1.335.411.411,0,0,1,.033.627.4.4,0,0,1-.551.071c-.607-.424-1.21-.857-1.8-1.3a.452.452,0,0,1-.14-.547A.431.431,0,0,1,396.907,96.866Z" transform="translate(-369.751 -76.127)" fill="#a9d7ed"/><path d="M399.947,89.2c.669.093,1.239.164,1.806.254a.43.43,0,0,1,.4.389.417.417,0,0,1-.4.491A6.393,6.393,0,0,1,399.466,90a.373.373,0,0,1-.218-.417.411.411,0,0,1,.4-.386A1.657,1.657,0,0,1,399.947,89.2Z" transform="translate(-370.302 -74.603)" fill="#a9d7ed"/><path d="M368.409,80.59c-.083.3-.309.509-.591.351a20.436,20.436,0,0,1-1.782-1.168.434.434,0,0,1,.347-.753,4.779,4.779,0,0,1,1.981,1.364C368.4,80.427,368.394,80.512,368.409,80.59Z" transform="translate(-363.675 -72.58)" fill="#a9d7ed"/><path d="M399.77,80.255c.325.006.547.074.6.358a.4.4,0,0,1-.282.478c-.6.212-1.211.418-1.826.595a.456.456,0,0,1-.6-.248.418.418,0,0,1,.247-.58A9.1,9.1,0,0,1,399.77,80.255Z" transform="translate(-369.981 -72.828)" fill="#a9d7ed"/></g><g transform="translate(297.665 25.827)"><path d="M438.79,94.541h-6.759a7.975,7.975,0,0,1-.819,0,.957.957,0,0,1-.975-.866.943.943,0,0,1,.9-.931,4,4,0,0,1,.613-.034q7.015-.046,14.032-.087a2.67,2.67,0,0,1,1.011.12.7.7,0,0,1,.47.721.672.672,0,0,1-.5.694,3.688,3.688,0,0,1-.809.1q-3.583.114-7.166.215Z" transform="translate(-430.232 -88.415)" fill="#a9d7ed"/><path d="M437.189,98.286c1.775,0,3.55-.01,5.325,0,.84.007,1.214.262,1.238.762.026.534-.383.846-1.265.865q-5.324.115-10.649.194a2.918,2.918,0,0,1-.809-.091.854.854,0,0,1,.021-1.648,4.19,4.19,0,0,1,.915-.067c1.741-.006,3.482,0,5.223,0Z" transform="translate(-430.267 -89.541)" fill="#a9d7ed"/><path d="M433.918,89.229c-.749,0-1.5,0-2.248,0a3.512,3.512,0,0,1-.712-.038.827.827,0,0,1-.727-.858.8.8,0,0,1,.669-.8,2.794,2.794,0,0,1,.606-.072q2.508-.048,5.015-.087c.034,0,.068,0,.1,0,.715.032,1.1.3,1.121.785s-.353.821-1.064.843c-.92.028-1.842.006-2.762.006Z" transform="translate(-430.231 -87.374)" fill="#a9d7ed"/><path d="M433.641,104.506c-.644.03-1.289.087-1.935.086-.683,0-1.047-.324-1.043-.848,0-.5.311-.8.949-.845a38.054,38.054,0,0,1,3.872-.137,2.279,2.279,0,0,1,.305.017c.53.093.877.443.822.866a.8.8,0,0,1-.832.745c-.712.026-1.426.007-2.139.007Z" transform="translate(-430.317 -90.429)" fill="#a9d7ed"/></g><path d="M403.65,132.27a7.634,7.634,0,0,1-9.792,6.953.694.694,0,0,0-.951.377c-.909,1.568-1.853,3.117-2.772,4.679-.676,1.148-1.354,2.294-2.137,3.374a5.892,5.892,0,0,1-.59.723.908.908,0,0,1-1.293.195c-.4-.216-.788-.45-1.168-.7-.72-.469-.858-.878-.5-1.646a15.51,15.51,0,0,1,.869-1.557q2.348-3.794,4.72-7.574a.75.75,0,0,0-.06-1.086c-1.309-1.521-2.147-5.186-.572-7.605.263-.4.514-.817.808-1.2a6.723,6.723,0,0,1,8.533-1.939,12.679,12.679,0,0,1,2.937,2.012A6.752,6.752,0,0,1,403.65,132.27Zm-3.141-.514a3.735,3.735,0,0,0-1.061-2.334A7.072,7.072,0,0,0,396.2,127.5a2.388,2.388,0,0,0-1.814.163,5.873,5.873,0,0,0-2.349,2.03,2.956,2.956,0,0,0-.525,1.845c.158,2.738,1.665,4.392,4.5,5.1a2.194,2.194,0,0,0,1.091-.063A5.256,5.256,0,0,0,400.509,131.756Z" transform="translate(-123.436 -68.921)" fill="#a9d7ed"/></g><g transform="translate(55.833 231.505)"><path d="M133.846,288a31.366,31.366,0,0,1-1.971,9.874c-.617,1.7-1.234,3.4-1.83,5.11a17.567,17.567,0,0,0-.959,4.755,5.7,5.7,0,0,0,.2,1.757,16.413,16.413,0,0,0,1.547,3.7,37.718,37.718,0,0,1,2.071,4.194,17.856,17.856,0,0,1,.136,12.023,20.442,20.442,0,0,1-2.658,5.345c-1.322,1.97-2.682,3.914-3.884,5.962a21.6,21.6,0,0,0-1.519,3.005,9.222,9.222,0,0,0-.139,6.853c.3.789.608,1.572.907,2.359a8.287,8.287,0,0,1-.235,6.64,24.649,24.649,0,0,1-1.513,2.8,1.219,1.219,0,0,1-.409.5c-.2.1-.389.069-.415-.178a5.36,5.36,0,0,1-.006-.935,4.6,4.6,0,0,0-1.718-3.964,26.211,26.211,0,0,0-2.907-2.205,22.45,22.45,0,0,1-2.809-2.177,7.188,7.188,0,0,1-2.214-6.81,16.958,16.958,0,0,1,1.882-5.264c.559-1.081,1.135-2.154,1.664-3.249a12.226,12.226,0,0,0,1.074-4.808,5.939,5.939,0,0,0-.72-3.057c-.841-1.641-1.822-3.2-2.8-4.761a12.339,12.339,0,0,1-1.966-4.615,13.979,13.979,0,0,1,.527-6.193,25.476,25.476,0,0,1,1.568-3.9q.633-1.305,1.283-2.6a14.014,14.014,0,0,0,1.247-9.723,36.364,36.364,0,0,1-.973-6.281,26.851,26.851,0,0,1,.883-9.085,12.691,12.691,0,0,1,3.556-5.849,6.9,6.9,0,0,1,7.895-1.327,6.521,6.521,0,0,1,3,2.736A15.178,15.178,0,0,1,133.458,284,27.6,27.6,0,0,1,133.846,288Z" transform="translate(-73.676 -275.209)" fill="#58dc8f"/><path d="M166.313,304.809a12.549,12.549,0,0,1-1.108,4.7,51.312,51.312,0,0,1-3.261,6.105q-.524.886-1.052,1.77a13.624,13.624,0,0,0-1.628,8.488,18.128,18.128,0,0,1-.013,5.684,17.1,17.1,0,0,1-3.56,6.828,27.764,27.764,0,0,1-4.542,4.309,10.65,10.65,0,0,0-4.09,6.3c-.17.857-.307,1.72-.454,2.581-.115.676-.235,1.353-.333,2.032-.527,3.664-2.722,5.986-5.987,7.44a10.17,10.17,0,0,1-3.351.809c-.9.072-1.8.183-2.7.3A8.4,8.4,0,0,0,129.2,364.8c-.523.536-1.007,1.108-1.506,1.668-.147.165-.289.361-.54.274s-.2-.357-.221-.563a3.107,3.107,0,0,1,.466-1.968,9.373,9.373,0,0,1,2.2-2.534,27.6,27.6,0,0,1,3.517-2.312,10.727,10.727,0,0,0,2.7-2.145,5.983,5.983,0,0,0,1.505-5.8c-.3-1.15-.667-2.274-1.076-3.387a30.646,30.646,0,0,1-.928-3.04,9.077,9.077,0,0,1,.937-6.783,13.213,13.213,0,0,1,4.294-4.742c.958-.644,1.94-1.25,2.851-1.967a14.35,14.35,0,0,0,5.469-9.084,25.912,25.912,0,0,0,.432-6.327,25.67,25.67,0,0,1,.7-8.823,17.78,17.78,0,0,1,3.736-7.051,9,9,0,0,1,5.88-2.963,4.068,4.068,0,0,1,2.2.323,6.865,6.865,0,0,1,4.065,4.379A8.741,8.741,0,0,1,166.313,304.809Z" transform="translate(-76.536 -279.58)" fill="#58dc8f"/><path d="M89.7,313.37c-.111,1.19-.291,3.147-.474,5.1a9.534,9.534,0,0,0,.815,5.019,7.217,7.217,0,0,0,2.308,2.9c.658.474,1.315.954,1.943,1.467a11.22,11.22,0,0,1,4.262,10.694c-.256,2.042-.686,4.066-.866,6.114a18.544,18.544,0,0,0,1.422,9.795,10.748,10.748,0,0,0,7.255,6,28.947,28.947,0,0,1,3.233.94,9.01,9.01,0,0,1,4.629,4.047c.092.162.174.331.256.5.068.139.147.292.029.432a.378.378,0,0,1-.432.085,2.666,2.666,0,0,1-.429-.184,27.46,27.46,0,0,0-8.537-2.648c-1.411-.253-2.826-.514-4.215-.866-5.187-1.312-8.313-4.808-10.073-9.687a22.51,22.51,0,0,1-1.006-7.479,15.44,15.44,0,0,0-.671-4.519,7.123,7.123,0,0,0-2.1-3.262c-.539-.475-1.074-.954-1.625-1.414a12.961,12.961,0,0,1-4.711-9.915,30.17,30.17,0,0,0-.46-4.465,12.37,12.37,0,0,0-6.344-8.6c-1.32-.777-2.717-1.4-4.068-2.118a10.943,10.943,0,0,1-5.475-6.6,5.982,5.982,0,0,1,2.995-7.314,6.177,6.177,0,0,1,6.479.5,10.323,10.323,0,0,1,1.925,1.634,13.769,13.769,0,0,0,6.656,3.809c.482.122.953.294,1.422.464C87.092,304.971,90.008,307.818,89.7,313.37Z" transform="translate(-64.051 -279.475)" fill="#58dc8f"/><path d="M123.407,379.157c6.741-.353,13.483-.446,20.227-.154,1.288.055,1.823.67,1.625,1.938q-1.581,10.113-3.166,20.226-.875,5.6-1.738,11.194c-.263,1.714-.428,1.939-2.138,2.095a53.742,53.742,0,0,1-7.712.216c-2.517-.133-5.036-.039-7.554.014-4.142.088-8.283.088-12.419-.2-.977-.068-1.958-.069-2.937-.107-1.2-.047-1.653-.458-1.8-1.656q-1.037-8.285-2.067-16.571-.938-7.494-1.886-14.987c-.131-1.032.213-1.463,1.261-1.476,2.1-.026,4.2,0,6.3-.068,4-.128,8-.309,12-.458C122.063,379.135,122.736,379.157,123.407,379.157Z" transform="translate(-71.551 -295.788)" fill="#e1f0ff"/></g><g transform="translate(143.966 112.979)"><path d="M178.686,420.914a12.507,12.507,0,0,1-3.178-.263,1.718,1.718,0,0,1-1.316-2.5,3.156,3.156,0,0,1,1.289-1.548,14.827,14.827,0,0,1,2.642-1.341c3.242-1.356,6.5-2.666,9.657-4.228a42.052,42.052,0,0,0,9.036-6.325,1.95,1.95,0,0,1,1.752-.514c2.228.338,4.431.8,6.638,1.245,2.48.5,5,.693,7.5,1.043.708.1,1.415.227,2.115.378,1.2.26,1.362.5,1.047,1.7-.373,1.418-.765,2.834-1.217,4.229-.441,1.362-.95,2.7-1.457,4.041a3.2,3.2,0,0,1-3.174,2.145c-1.4.041-2.8.042-4.2.085-4.81.145-9.617.321-14.418.689-3.507.268-6.993.707-10.493,1.024C180.129,420.849,179.343,420.875,178.686,420.914Z" transform="translate(-174.025 -182.295)" fill="#5e5e5e"/><path d="M263.558,421.973c-4.417-.1-8.819.213-13.225.508-3.341.224-6.686.387-10.034.448a4.094,4.094,0,0,1-1.443-.211,2.232,2.232,0,0,1-1.109-3.472,6.021,6.021,0,0,1,1.915-1.864,19.283,19.283,0,0,1,2.823-1.438l7.409-3.2a23.442,23.442,0,0,0,7.18-4.794,1.026,1.026,0,0,1,1-.295c2.5.426,4.987.884,7.5,1.211,2.447.318,4.857.926,7.31,1.215,1.011.119,1.249.478.97,1.561-.639,2.5-1.1,5.036-1.539,7.582-.334,1.919-.95,2.484-2.73,2.677a38.131,38.131,0,0,1-4.016.071C264.9,421.975,264.227,421.973,263.558,421.973Z" transform="translate(-186.594 -182.983)" fill="#5e5e5e"/><g transform="translate(113.078)"><path d="M342.809,192.364a29.272,29.272,0,0,1-8.156-1.4,24.259,24.259,0,0,1-3.734-1.671,2.18,2.18,0,0,1-1.248-2.508,65.168,65.168,0,0,0,.527-7.969c.026-.789.021-.795-.817-.977a41.565,41.565,0,0,1-4.281-1.014,10.372,10.372,0,0,1-1.877-.809,6.364,6.364,0,0,1-3.3-4.687,24.642,24.642,0,0,1-.3-5.309,34.229,34.229,0,0,1,.222-3.577c.058-.375-.063-.563-.461-.625a6.7,6.7,0,0,1-1.387-.337.838.838,0,0,1-.414-1.451,12.2,12.2,0,0,1,1.132-1.323,9.525,9.525,0,0,0,2.443-5.09c.336-1.673.651-3.351.988-5.023.194-.96.439-1.1,1.33-.7a18.273,18.273,0,0,0,4.118,1.2,9.365,9.365,0,0,1,2.509.86,2.8,2.8,0,0,1,1.522,2.06,16.047,16.047,0,0,1-.09,3.877c-.009.272-.062.543-.084.815-.1,1.181-.089,1.158,1.062,1.364a.711.711,0,0,0,.942-.5,17.519,17.519,0,0,1,.884-2.068,2.208,2.208,0,0,1,2.028-1.485c1.025.039,1.541.784,1.984,1.575a5.365,5.365,0,0,1,.487,1.557,57.958,57.958,0,0,0,1.824,7.241,11.914,11.914,0,0,0,4.288,5.971,6.389,6.389,0,0,0,5.821,1.017c.131-.038.258-.09.391-.123.7-.172.986.026.91.755-.123,1.191-.11,2.389-.22,3.577-.294,3.2-.306,6.413-.564,9.613-.083,1.02-.216,2.036-.321,3.055A1.554,1.554,0,0,1,350,189.59a14.984,14.984,0,0,0-3.711,2.343,1.869,1.869,0,0,1-1.333.431C344.242,192.362,343.525,192.364,342.809,192.364Z" transform="translate(-315.56 -131.358)" fill="#faaa91"/><path d="M342.4,160.424a5,5,0,0,1-.861,2.665,2.894,2.894,0,0,1-1.527,1.137,1.839,1.839,0,0,1-2.173-.887.608.608,0,0,1,.072-.831c.3-.264.552-.111.809.1.8.668,1.3.623,1.882-.214a3.871,3.871,0,0,0,.555-3.222c-.175-.738-.625-.91-1.281-.535-.332.189-.628.352-.864-.05-.21-.359,0-.648.285-.881a1.809,1.809,0,0,1,2.536.358A3.671,3.671,0,0,1,342.4,160.424Z" transform="translate(-319.611 -133.276)"/><path d="M358.041,152.944a27.1,27.1,0,0,1-1.644,9.773,10.441,10.441,0,0,1-3.109,4.255,6.778,6.778,0,0,1-8.686.147,13.027,13.027,0,0,1-4.24-5.671,35.02,35.02,0,0,1-1.791-7.762,7.137,7.137,0,0,0-.388-1.588,3.1,3.1,0,0,0-1.16-1.523,1.394,1.394,0,0,0-2.29.535,22.864,22.864,0,0,0-1.047,2.556c-.4.994-.669,1.149-1.7.986-.135-.021-.267-.058-.4-.085-.96-.191-1.1-.369-.937-1.3a23.2,23.2,0,0,0,.4-3.763c.007-.579-.041-1.16-.022-1.738a1.208,1.208,0,0,0-1.035-1.317c-1.024-.264-2.05-.522-3.081-.756-1.332-.3-2.658-.619-3.956-1.047a7.242,7.242,0,0,1-3.254-2.056,17.62,17.62,0,0,1-4.182-7.418,9.7,9.7,0,0,1-.139-4.862,7.263,7.263,0,0,1,1.18-2.482c.488-.664.966-.688,1.506-.077a3.748,3.748,0,0,1,.549.859c1.343,2.8,3.748,3.831,6.658,3.975a39.385,39.385,0,0,0,6.73-.543,26.178,26.178,0,0,1,12.239.954c6.761,2.435,11.252,7.024,13,14.115A22.562,22.562,0,0,1,358.041,152.944Z" transform="translate(-315.126 -127.311)" fill="#824f0c"/><path d="M317.119,155.041a7.787,7.787,0,0,1,1.025-3.584c.5-.862.765-1,1.749-.821,3.022.54,6.037,1.12,9.062,1.64a40.552,40.552,0,0,1,6.984,1.535,11.375,11.375,0,0,1,2.511,1.137,3.393,3.393,0,0,1,1.685,2.554,3.215,3.215,0,0,1-.01.713.5.5,0,0,1-.462.474.462.462,0,0,1-.528-.5c.008-1.733-1.2-2.4-2.553-2.936a27.9,27.9,0,0,0-5.33-1.424q-5.489-.982-10.979-1.961c-.984-.176-1-.167-1.4.712a6.872,6.872,0,0,0-.587,2.165,1.916,1.916,0,0,0,1.5,2.3c.367.107.674.234.6.664s-.434.474-.793.468a2.625,2.625,0,0,1-2.344-2.106A7.75,7.75,0,0,1,317.119,155.041Z" transform="translate(-315.522 -131.93)"/></g><path d="M274.32,311.527c-3.831-.055-7.645.244-11.46.551-2.282.184-4.566.366-6.826.71a47.761,47.761,0,0,0-7.4,1.609A7.619,7.619,0,0,0,244.4,317.6a32.678,32.678,0,0,0-4.117,8.884c-2.827,10.09-5.508,20.22-8.762,30.19-2.085,6.39-3.8,12.9-5.688,19.355-1.036,3.538-2.1,7.068-3.14,10.606-.211.72-.36,1.458-.547,2.185-.255.99-.506,1.191-1.526,1.033-1.484-.229-2.955-.546-4.438-.781-4.384-.695-8.758-1.446-13.084-2.45-1.031-.239-2.056-.5-3.077-.781-1.382-.376-1.572-.6-1.269-2.031.453-2.136,1.023-4.246,1.519-6.374,1.41-6.054,3.253-11.991,4.878-17.986,1.4-5.175,2.439-10.438,3.612-15.667a123.116,123.116,0,0,1,8.057-23.717,62.37,62.37,0,0,1,3.631-6.767,27.187,27.187,0,0,1,15.033-12.019,90.209,90.209,0,0,1,17.357-3.894c6.44-.817,12.9-1.462,19.385-1.748,4.883-.216,9.769-.164,14.654-.074,5.5.1,10.99.463,16.492.475.844,0,1.021.325.872,1.189a28.929,28.929,0,0,1-3,8.137,7.278,7.278,0,0,1-4.1,3.668,33.271,33.271,0,0,1-7.681,1.691A136.289,136.289,0,0,1,274.32,311.527Z" transform="translate(-178.911 -160.712)" fill="#70869b"/><path d="M278.42,400.256c-1.812-.189-3.659-.538-5.5-.878-2.79-.513-5.621-.727-8.411-1.225-1.949-.349-3.906-.652-5.852-1.015-1.249-.234-1.428-.605-1.191-1.862q1.083-5.736,2.118-11.481c1.063-5.914,2.221-11.809,3.4-17.7.9-4.519,1.7-9.059,2.781-13.541q.661-2.737,1.357-5.466c.276-1.092.434-1.221,1.522-1.262q5.786-.219,11.571-.425a68.78,68.78,0,0,1,8.6.065,20.039,20.039,0,0,1,2.033.238c.975.189,1.265.686.978,1.624-2.165,7.051-3.966,14.2-5.808,21.34-.9,3.474-1.441,7.021-2.064,10.55-1,5.684-2.29,11.308-3.5,16.949-.221,1.035-.41,2.076-.634,3.11C279.613,400.205,279.438,400.32,278.42,400.256Z" transform="translate(-190.578 -170.604)" fill="#596f82"/><path d="M204.817,245.769a9.086,9.086,0,0,1,4.345,1.253c.249.151.617.3.43.688-.176.366-.512.207-.813.147-.836-.165-1.669-.365-2.514-.454a9.848,9.848,0,0,0-5,.766c-.5.216-1,.445-1.493.669-.277.126-.593.336-.817-.007-.21-.321.058-.589.277-.795a7.757,7.757,0,0,1,4.03-2.08C203.8,245.864,204.344,245.824,204.817,245.769Z" transform="translate(-178.961 -150.837)" fill="#ef9e89"/><g transform="translate(14.853 78.673)"><path d="M206.261,252.571a9.511,9.511,0,0,0-4.743,1.383,22.305,22.305,0,0,1-3.2,1.618,3.477,3.477,0,0,1-1.392.305.6.6,0,0,1-.582-.916,2.665,2.665,0,0,1,.856-1,27.563,27.563,0,0,1,5.332-3.427,3.221,3.221,0,0,0,1.074-.668,11.674,11.674,0,0,0-3.569.918c-1.423.577-2.821,1.22-4.23,1.831a10.063,10.063,0,0,1-2.221.765c-.341.062-.716.109-.912-.262s.054-.653.288-.906a7.5,7.5,0,0,1,1.372-1.067,50.685,50.685,0,0,1,7.166-3.742,3.217,3.217,0,0,0,1.236-.719,13.651,13.651,0,0,0-4.111,1.028c-1.118.421-2.214.9-3.366,1.23a7.093,7.093,0,0,1-2.01.352c-.24,0-.494-.015-.624-.264a.66.66,0,0,1,.13-.757,3.752,3.752,0,0,1,.935-.792,43.276,43.276,0,0,1,7.336-3.853,11.469,11.469,0,0,1,7.326-.515,43.72,43.72,0,0,0,11.371,1.251,79.323,79.323,0,0,0,25.5-4.547,53.877,53.877,0,0,0,5.828-2.516,24.711,24.711,0,0,0,8.98-7.921c.764-1.049,1.519-2.1,2.2-3.208.537-.866.683-.882,1.51-.243.567.438,1.126.891,1.656,1.373,3.191,2.895,6.553,5.583,9.938,8.242.537.422,1.023.906,1.558,1.33.763.6.864.749.066,1.613-.487.527-.924,1.1-1.43,1.608a66.159,66.159,0,0,1-10.24,8.637,35.694,35.694,0,0,1-12.825,5.2,91.04,91.04,0,0,1-9.282,1.592c-2.554.244-5.113.295-7.673.367a67.408,67.408,0,0,1-13.362-.983c-2.519-.433-5.082-.636-7.633-.848a16.573,16.573,0,0,0-8.936,1.741,32.876,32.876,0,0,1-3.638,1.646,14.2,14.2,0,0,1-1.472.43.658.658,0,0,1-.748-.187c-.227-.309-.053-.592.1-.854a3.285,3.285,0,0,1,.855-.874,25.489,25.489,0,0,1,4.507-2.823C205.551,252.96,205.9,252.761,206.261,252.571Z" transform="translate(-192.56 -225.481)" fill="#faaa91"/></g><path d="M323.357,196.479c-.462.876.117,1.34.764,1.786a9.527,9.527,0,0,0,3.51,1.359,47.6,47.6,0,0,0,8.944.979c1.294.029,2.589,0,3.891,0a.934.934,0,0,1-.431.825,19.767,19.767,0,0,0-4.742,8.149,137.839,137.839,0,0,0-3.631,13.327c-2.387,10.272-4.522,20.6-6.777,30.9-.693,3.167-1.451,6.322-2.05,9.507-.631,3.354-1.1,6.737-1.658,10.1-.167,1.01-.4,2.008-.58,3.016a.827.827,0,0,1-.979.784c-1.741-.058-3.484-.063-5.224-.117-5.8-.182-11.605-.459-17.413-.333-3.38.075-6.759.217-10.141.124-.614-.017-1.233-.021-1.84-.1-.537-.067-.615-.257-.4-.777.1-.252.236-.492.361-.735a122.494,122.494,0,0,0,7.2-16.843,203.709,203.709,0,0,0,7.59-28.785c1.253-6.954,2.517-13.905,3.626-20.884.658-4.146,1.373-8.283,2.07-12.423.132-.788.224-.87,1.112-.821,2.591.144,5.181.3,7.77.479,2.657.185,5.314.367,7.98.325A1.5,1.5,0,0,1,323.357,196.479Z" transform="translate(-195.964 -140.858)" fill="#b8d5ff"/><path d="M312.524,205.673a14.883,14.883,0,0,1-1.145,5.064,39.365,39.365,0,0,1-3.459,6.383,134.464,134.464,0,0,1-10.742,14.843,13.866,13.866,0,0,1-1.251,1.352,1.4,1.4,0,0,1-2.095.092,86.489,86.489,0,0,1-9.254-7.6c-1.923-1.743-3.864-3.464-5.788-5.207a13.944,13.944,0,0,1-1.3-1.308,1.579,1.579,0,0,1-.126-2.151,3.928,3.928,0,0,1,.294-.419c3.692-4.523,7.14-9.244,11.083-13.562a32.468,32.468,0,0,1,8.107-6.52,10.532,10.532,0,0,1,7.986-1.242c3.61.912,7.225,3.968,7.53,8.442C312.412,204.449,312.537,205.055,312.524,205.673Z" transform="translate(-194.478 -140.771)" fill="#cfe5ff"/><g transform="translate(59.181 55.397)"><path d="M332.96,359.868a31.545,31.545,0,0,1-.331,3.18c-.431,1.734-1.323,2.34-3.115,2.2-1.836-.14-3.678-.2-5.517-.3-1.609-.091-2.268-.705-2.431-2.3-.1-.983-.2-1.971-.2-2.958-.008-1.5.753-2.1,2.236-1.833a15.761,15.761,0,0,1,1.7.374,10.611,10.611,0,0,0,5.263.053c.2-.04.4-.1.6-.12C332.34,358.023,332.981,358.606,332.96,359.868Z" transform="translate(-262.468 -228.483)" fill="#878787"/><path d="M316.953,398.139c-2.121.614-4.086,1.29-6.033,2.012-4.7,1.746-9.385,3.561-14.155,5.128a7.794,7.794,0,0,1-2.7.518c-1.221-.039-1.729-.613-1.636-1.825a4.316,4.316,0,0,1,.518-1.544,10.93,10.93,0,0,1,3.565-4.025,40.919,40.919,0,0,1,6.937-3.944c4.429-2.054,8.718-4.408,13.261-6.216a1,1,0,0,0,.679-1.091c.1-6.524.3-13.048.308-19.574,0-.482-.29-1.093.143-1.437.368-.291.926-.013,1.4-.034,1.263-.058,2.526-.1,3.789-.141.205-.007.41-.014.615-.011.933.009,1,.072,1.023.969.007.307.01.615,0,.922-.195,5.088-.221,10.179-.233,15.27,0,1.367.058,2.738-.023,4.1a1.591,1.591,0,0,0,1,1.66q6.681,3.795,13.318,7.671a18.385,18.385,0,0,1,4.579,3.591,4.945,4.945,0,0,1,1.453,3.4,2.215,2.215,0,0,1-2.587,2.327,7.426,7.426,0,0,1-1.687-.418c-1.577-.565-3.1-1.253-4.636-1.923-3.348-1.461-6.753-2.794-10.032-4.413a.75.75,0,0,0-.551-.111,18.816,18.816,0,0,0-.432,3.078c-.257,1.548-.4,3.116-.8,4.638a4.755,4.755,0,0,1-.477,1.238c-1.128,1.89-2.506,2.173-4.463,1.491a2.631,2.631,0,0,1-1.636-2.2,23.141,23.141,0,0,1-.409-3.353c-.08-1.638-.114-3.278-.055-4.918C317,398.74,316.97,398.5,316.953,398.139Z" transform="translate(-256.719 -230.103)" fill="#aaa"/><path d="M325.159,347.714q5.379,0,10.758,0c1.3,0,1.366.114.977,1.353a14.42,14.42,0,0,1-6.106,7.957,7.728,7.728,0,0,1-3.757,1.217,14.067,14.067,0,0,1-8.98-2.2,10.314,10.314,0,0,1-4-5.054,23.28,23.28,0,0,1-.73-2.344c-.243-.893-.09-1.079.873-1.083,1.845-.01,3.689,0,5.534,0h5.431Z" transform="translate(-260.851 -226.449)" fill="#5e5e5e"/><path d="M296.629,416.828a5.772,5.772,0,0,1-5.728-5.84,5.632,5.632,0,0,1,5.616-5.595,5.776,5.776,0,0,1,5.783,5.71A5.577,5.577,0,0,1,296.629,416.828Z" transform="translate(-256.418 -237.936)" fill="#5e5e5e"/><path d="M325.731,421.08A5.772,5.772,0,0,1,320,415.24a5.633,5.633,0,0,1,5.616-5.595,5.775,5.775,0,0,1,5.783,5.71A5.577,5.577,0,0,1,325.731,421.08Z" transform="translate(-262.198 -238.781)" fill="#5e5e5e"/><path d="M354.645,416.97a5.773,5.773,0,0,1-5.728-5.84,5.632,5.632,0,0,1,5.616-5.595,5.776,5.776,0,0,1,5.783,5.709A5.579,5.579,0,0,1,354.645,416.97Z" transform="translate(-267.94 -237.964)" fill="#5e5e5e"/><path d="M272.35,302.9c.113-4.614.554-9.206.913-13.8a7.287,7.287,0,0,1,.295-1.713,2.414,2.414,0,0,1,2.338-1.809,6.107,6.107,0,0,1,.716.007,2.425,2.425,0,0,1,2.525,2.534,30.14,30.14,0,0,1-.062,3.688c-.247,3.75-.474,7.5-.751,11.249a48.325,48.325,0,0,1-.761,6.2,4.645,4.645,0,0,1-.6,1.622,2.289,2.289,0,0,1-3.75.337,3.308,3.308,0,0,1-1.02-2.574C272.287,306.729,272.3,304.815,272.35,302.9Z" transform="translate(-252.701 -214.139)" fill="#5e5e5e"/><path d="M293.79,284.248c-6.418.148-11.637.42-16.853.756a34.72,34.72,0,0,1-7.467-.116,4.894,4.894,0,0,1-1.657-.5,3.085,3.085,0,0,1-1.6-3.433,6.039,6.039,0,0,1,4.249-4.689,32.2,32.2,0,0,1,6.844-1.227c3.5-.3,7.017-.512,10.522-.809,4.425-.374,8.849-.732,13.285-.949,1.945-.1,3.889-.2,5.835-.272,4.062-.143,8.125-.263,12.188-.392.171-.006.342-.024.512-.014.744.046,1.028.378.944,1.139a11.988,11.988,0,0,1-.212,1.21q-.751,3.5-1.517,7c-.179.813-.277.874-1.194.964-3.673.361-7.362.485-11.045.68C301.947,283.849,297.273,284.073,293.79,284.248Z" transform="translate(-251.497 -211.563)" fill="#5e5e5e"/><path d="M390.585,203.93a.4.4,0,0,1-.016.1,16.853,16.853,0,0,1-1.082,3.093c-.978,2.292-1.955,4.584-2.965,6.868a88.227,88.227,0,0,0-4.656,14.834c-1.539,6.339-2.917,12.71-4.063,19.129-.593,3.294-.954,6.628-1.314,9.953-.433,4.079-.922,8.142-1.338,12.221-.337,3.334-.617,6.668-.9,10-.417,4.8-.713,9.609-1.451,14.369a37.552,37.552,0,0,1-1.955,7.95c-3.246,8.294-8.871,14.073-17.727,16.284a57.145,57.145,0,0,1-12.662,1.715c-7.421.16-14.826-.224-22.231-.529-4.1-.168-8.174-.609-12.261-.866-2.492-.16-4.985-.232-7.477-.313q-4.868-.168-9.737-.28c-3.31-.072-6.628.048-9.937.2a101.376,101.376,0,0,1-11.572-.192c-2.212-.144-4.432-.256-6.636-.513a27.076,27.076,0,0,1-4.865-.962,8.447,8.447,0,0,1-.409-4.159,38.488,38.488,0,0,1,1.555-6.78,9.5,9.5,0,0,1,5.4-6.083,26.163,26.163,0,0,1,8.527-2.028c4.624-.393,9.272-.5,13.92-.657,5.874-.208,11.748-.369,17.615-.649a57.762,57.762,0,0,0,9.937-1.346,11.5,11.5,0,0,0,1.947-.625,5.8,5.8,0,0,0,3.2-3.013,29.531,29.531,0,0,0,2.372-8.134c.737-5.554,1.915-11.035,3-16.525,1.507-7.669,2.933-15.363,4.44-23.032,1.354-6.9,2.669-13.808,4.5-20.612a54.974,54.974,0,0,1,4.4-11.452,25.407,25.407,0,0,1,3.839-5.289,8.869,8.869,0,0,1,3.855-2.26,31.178,31.178,0,0,1,8.062-1.322c5.113-.289,10.242-.441,15.371-.3,6.171.24,12.358.3,18.536.713C387.4,203.546,389,203.666,390.585,203.93Z" transform="translate(-249.336 -197.676)" fill="#bfbfbf"/><path d="M389.121,202.692c-1.587-.264-3.19-.385-4.784-.489-6.179-.417-12.366-.473-18.536-.713-5.129-.144-10.258.008-15.371.3a31.178,31.178,0,0,0-8.062,1.322,8.869,8.869,0,0,0-3.855,2.26,25.407,25.407,0,0,0-3.839,5.289,54.974,54.974,0,0,0-4.4,11.452c-1.827,6.8-3.142,13.712-4.5,20.612-1.507,7.669-2.933,15.363-4.44,23.032-1.082,5.49-2.26,10.971-3,16.525a29.531,29.531,0,0,1-2.372,8.134,5.8,5.8,0,0,1-3.2,3.013,11.5,11.5,0,0,1-1.947.625,57.762,57.762,0,0,1-9.937,1.346c-5.866.28-11.74.441-17.615.649-4.648.16-9.3.264-13.92.657a26.163,26.163,0,0,0-8.527,2.028,9.5,9.5,0,0,0-5.4,6.083,38.489,38.489,0,0,0-1.555,6.78,8.447,8.447,0,0,0,.409,4.159c-.08-.024-.168-.056-.248-.08a10.2,10.2,0,0,1-1.883-.793,7.715,7.715,0,0,1-4.183-8.286,38.487,38.487,0,0,1,1.555-6.78,9.471,9.471,0,0,1,5.4-6.075,26.38,26.38,0,0,1,8.527-2.036c4.624-.393,9.272-.489,13.92-.657,5.874-.2,11.749-.369,17.615-.641a57.769,57.769,0,0,0,9.937-1.354,10.816,10.816,0,0,0,1.947-.625,5.789,5.789,0,0,0,3.2-3.005,29.612,29.612,0,0,0,2.372-8.134c.737-5.562,1.915-11.035,3-16.533,1.507-7.669,2.933-15.355,4.44-23.032,1.354-6.9,2.669-13.808,4.5-20.6a54.635,54.635,0,0,1,4.4-11.452,25.25,25.25,0,0,1,3.839-5.3,8.777,8.777,0,0,1,3.855-2.252,30.85,30.85,0,0,1,8.062-1.33c5.113-.289,10.242-.441,15.371-.289,6.171.24,12.358.3,18.536.713a34.135,34.135,0,0,1,7.084.986c.465.136.93.248,1.37.417A3.321,3.321,0,0,1,389.121,202.692Z" transform="translate(-247.873 -196.437)" fill="#e8e8e8"/></g></g></g></svg>